<?xml version="1.0" encoding="UTF-8" standalone="no"?>
<!-- Created with Inkscape (http://www.inkscape.org/) -->

<svg
   xmlns:dc="http://purl.org/dc/elements/1.1/"
   xmlns:cc="http://creativecommons.org/ns#"
   xmlns:rdf="http://www.w3.org/1999/02/22-rdf-syntax-ns#"
   xmlns:svg="http://www.w3.org/2000/svg"
   xmlns="http://www.w3.org/2000/svg"
   xmlns:sodipodi="http://sodipodi.sourceforge.net/DTD/sodipodi-0.dtd"
   xmlns:inkscape="http://www.inkscape.org/namespaces/inkscape"
   version="1.1"
   id="svg1980"
   xml:space="preserve"
   width="1706.6667"
   height="1365.3333"
   viewBox="0 0 1706.6667 1365.3333"
   sodipodi:docname="digrams.svg"
   inkscape:export-filename="/home/hao/Desktop/Ongoing_projects/SU3_GSW/FeI2_field/generalized_spin_wave/notes/figs/diagrams.png"
   inkscape:export-xdpi="96"
   inkscape:export-ydpi="96"
   inkscape:version="0.92.4 (f8dce91, 2019-08-02)"><metadata
     id="metadata1986"><rdf:RDF><cc:Work
         rdf:about=""><dc:format>image/svg+xml</dc:format><dc:type
           rdf:resource="http://purl.org/dc/dcmitype/StillImage" /><dc:title /></cc:Work></rdf:RDF></metadata><defs
     id="defs1984"><clipPath
       clipPathUnits="userSpaceOnUse"
       id="clipPath2006"><path
         d="M 0,1024 H 1280 V 0 H 0 Z"
         id="path2004"
         inkscape:connector-curvature="0" /></clipPath><clipPath
       clipPathUnits="userSpaceOnUse"
       id="clipPath2054"><path
         d="m 143.601,643.314 h 145.6 v 29.6 h -145.6 z"
         id="path2052"
         inkscape:connector-curvature="0" /></clipPath><clipPath
       clipPathUnits="userSpaceOnUse"
       id="clipPath2098"><path
         d="m 192.162,469.896 h 93.6 v 29.6 h -93.6 z"
         id="path2096"
         inkscape:connector-curvature="0" /></clipPath><clipPath
       clipPathUnits="userSpaceOnUse"
       id="clipPath2114"><path
         d="m 192.162,469.896 h 93.6 v 29.6 h -93.6 z"
         id="path2112"
         inkscape:connector-curvature="0" /></clipPath><clipPath
       clipPathUnits="userSpaceOnUse"
       id="clipPath2134"><path
         d="m 192.162,469.896 h 93.6 v 29.6 h -93.6 z"
         id="path2132"
         inkscape:connector-curvature="0" /></clipPath><clipPath
       clipPathUnits="userSpaceOnUse"
       id="clipPath2150"><path
         d="m 560.914,471.242 h 93.6 v 29.6 h -93.6 z"
         id="path2148"
         inkscape:connector-curvature="0" /></clipPath><clipPath
       clipPathUnits="userSpaceOnUse"
       id="clipPath2186"><path
         d="m 341.404,564.85 h 160.685 v 25.591 H 341.404 Z"
         id="path2184"
         inkscape:connector-curvature="0" /></clipPath><clipPath
       clipPathUnits="userSpaceOnUse"
       id="clipPath2250"><path
         d="m 544.414,634.814 h 145.6 v 29.6 h -145.6 z"
         id="path2248"
         inkscape:connector-curvature="0" /></clipPath><clipPath
       clipPathUnits="userSpaceOnUse"
       id="clipPath2266"><path
         d="m 544.414,634.814 h 145.6 v 29.6 h -145.6 z"
         id="path2264"
         inkscape:connector-curvature="0" /></clipPath><clipPath
       clipPathUnits="userSpaceOnUse"
       id="clipPath2294"><path
         d="m 544.414,634.814 h 145.6 v 29.6 h -145.6 z"
         id="path2292"
         inkscape:connector-curvature="0" /></clipPath><clipPath
       clipPathUnits="userSpaceOnUse"
       id="clipPath2310"><path
         d="M 0,1024 H 1280 V 0 H 0 Z"
         id="path2308"
         inkscape:connector-curvature="0" /></clipPath><clipPath
       clipPathUnits="userSpaceOnUse"
       id="clipPath2366"><path
         d="m 789.227,668.987 h 145.6 v 29.6 h -145.6 z"
         id="path2364"
         inkscape:connector-curvature="0" /></clipPath><clipPath
       clipPathUnits="userSpaceOnUse"
       id="clipPath2382"><path
         d="m 789.227,668.987 h 145.6 v 29.6 h -145.6 z"
         id="path2380"
         inkscape:connector-curvature="0" /></clipPath><clipPath
       clipPathUnits="userSpaceOnUse"
       id="clipPath2410"><path
         d="m 789.227,668.987 h 145.6 v 29.6 h -145.6 z"
         id="path2408"
         inkscape:connector-curvature="0" /></clipPath><clipPath
       clipPathUnits="userSpaceOnUse"
       id="clipPath2426"><path
         d="m 837.85,433.427 h 93.6 v 29.6 h -93.6 z"
         id="path2424"
         inkscape:connector-curvature="0" /></clipPath><clipPath
       clipPathUnits="userSpaceOnUse"
       id="clipPath2462"><path
         d="m 1037.597,427.388 h 93.6 v 29.6 h -93.6 z"
         id="path2460"
         inkscape:connector-curvature="0" /></clipPath><clipPath
       clipPathUnits="userSpaceOnUse"
       id="clipPath2498"><path
         d="m 1034.04,670.618 h 145.6 v 29.6 h -145.6 z"
         id="path2496"
         inkscape:connector-curvature="0" /></clipPath><clipPath
       clipPathUnits="userSpaceOnUse"
       id="clipPath2542"><path
         d="M 0,1024 H 1280 V 0 H 0 Z"
         id="path2540"
         inkscape:connector-curvature="0" /></clipPath><clipPath
       id="clipPath2738"
       clipPathUnits="userSpaceOnUse"><path
         inkscape:connector-curvature="0"
         id="path2736"
         d="M 0,0 H 270 V 43 H 0 Z" /></clipPath><clipPath
       id="clipPath2893"
       clipPathUnits="userSpaceOnUse"><path
         inkscape:connector-curvature="0"
         id="path2891"
         d="M 0,0 H 270 V 43 H 0 Z" /></clipPath></defs><sodipodi:namedview
     pagecolor="#ffffff"
     bordercolor="#666666"
     borderopacity="1"
     objecttolerance="10"
     gridtolerance="10"
     guidetolerance="10"
     inkscape:pageopacity="0"
     inkscape:pageshadow="2"
     inkscape:window-width="1920"
     inkscape:window-height="1025"
     id="namedview1982"
     showgrid="false"
     inkscape:zoom="0.6181641"
     inkscape:cx="651.4452"
     inkscape:cy="682.66663"
     inkscape:window-x="0"
     inkscape:window-y="27"
     inkscape:window-maximized="1"
     inkscape:current-layer="g2404" /><g
     id="g1988"
     inkscape:groupmode="layer"
     inkscape:label="digrams"
     transform="matrix(1.3333333,0,0,-1.3333333,0,1365.3333)"><path
   d="M 504.317,525.334 H 334.298 v 99.793 h 170.019 z"
   style="fill:#c7b299;fill-opacity:1;fill-rule:nonzero;stroke:#000000;stroke-width:1;stroke-linecap:butt;stroke-linejoin:miter;stroke-miterlimit:10;stroke-dasharray:none;stroke-opacity:1"
   id="path1990"
   inkscape:connector-curvature="0" /><g
   id="g1992"
   transform="translate(301.0337,476.3613)"><path
     d="M 0,0 33.265,48.973"
     style="fill:none;stroke:#000000;stroke-width:2;stroke-linecap:butt;stroke-linejoin:miter;stroke-miterlimit:10;stroke-dasharray:none;stroke-opacity:1"
     id="path1994"
     inkscape:connector-curvature="0" /></g><g
   id="g1996"
   transform="translate(267.769,427.3887)"><path
     d="M 0,0 29.264,43.082"
     style="fill:none;stroke:#000000;stroke-width:2;stroke-linecap:butt;stroke-linejoin:miter;stroke-miterlimit:10;stroke-dasharray:none;stroke-opacity:1"
     id="path1998"
     inkscape:connector-curvature="0" /></g><g
   id="g2000"><g
     id="g2002"
     clip-path="url(#clipPath2006)"><g
       id="g2008"
       transform="translate(296.5806,469.8047)"><path
         d="M 0,0 C -2.903,-0.555 -6.881,0.943 -9.299,2.487 -4.505,2.694 0.365,3.888 4.453,6.557 3.413,1.817 4.358,-3.128 5.739,-7.728 3.337,-5.799 0.676,-3.085 0,0"
         style="fill:#000000;fill-opacity:1;fill-rule:nonzero;stroke:none"
         id="path2010"
         inkscape:connector-curvature="0" /></g><g
       id="g2012"
       transform="translate(537.5815,674.1006)"><path
         d="M 0,0 33.265,48.973"
         style="fill:none;stroke:#000000;stroke-width:2;stroke-linecap:butt;stroke-linejoin:miter;stroke-miterlimit:10;stroke-dasharray:none;stroke-opacity:1"
         id="path2014"
         inkscape:connector-curvature="0" /></g><g
       id="g2016"
       transform="translate(504.3169,625.1274)"><path
         d="M 0,0 29.264,43.083"
         style="fill:none;stroke:#000000;stroke-width:2;stroke-linecap:butt;stroke-linejoin:miter;stroke-miterlimit:10;stroke-dasharray:none;stroke-opacity:1"
         id="path2018"
         inkscape:connector-curvature="0" /></g><g
       id="g2020"
       transform="translate(533.1284,667.5439)"><path
         d="M 0,0 C -2.903,-0.554 -6.881,0.944 -9.299,2.487 -4.505,2.694 0.365,3.888 4.453,6.557 3.413,1.817 4.358,-3.128 5.739,-7.728 3.337,-5.799 0.676,-3.085 0,0"
         style="fill:#000000;fill-opacity:1;fill-rule:nonzero;stroke:none"
         id="path2022"
         inkscape:connector-curvature="0" /></g><g
       id="g2024"
       transform="translate(537.5815,476.3613)"><path
         d="M 0,0 -33.265,48.973"
         style="fill:none;stroke:#000000;stroke-width:2;stroke-linecap:butt;stroke-linejoin:miter;stroke-miterlimit:10;stroke-dasharray:none;stroke-opacity:1"
         id="path2026"
         inkscape:connector-curvature="0" /></g><g
       id="g2028"
       transform="translate(570.8462,427.3887)"><path
         d="M 0,0 -29.263,43.082"
         style="fill:none;stroke:#000000;stroke-width:2;stroke-linecap:butt;stroke-linejoin:miter;stroke-miterlimit:10;stroke-dasharray:none;stroke-opacity:1"
         id="path2030"
         inkscape:connector-curvature="0" /></g><g
       id="g2032"
       transform="translate(542.0352,469.8047)"><path
         d="m 0,0 c -0.555,-2.903 -3.414,-6.049 -5.739,-7.728 1.574,4.534 2.259,9.5 1.285,14.285 C -0.431,3.843 4.514,2.899 9.299,2.487 6.621,0.966 3.117,-0.508 0,0"
         style="fill:#000000;fill-opacity:1;fill-rule:nonzero;stroke:none"
         id="path2034"
         inkscape:connector-curvature="0" /></g><g
       id="g2036"
       transform="translate(301.0337,674.1006)"><path
         d="M 0,0 -33.265,48.973"
         style="fill:none;stroke:#000000;stroke-width:2;stroke-linecap:butt;stroke-linejoin:miter;stroke-miterlimit:10;stroke-dasharray:none;stroke-opacity:1"
         id="path2038"
         inkscape:connector-curvature="0" /></g><g
       id="g2040"
       transform="translate(334.2983,625.1274)"><path
         d="M 0,0 -29.263,43.083"
         style="fill:none;stroke:#000000;stroke-width:2;stroke-linecap:butt;stroke-linejoin:miter;stroke-miterlimit:10;stroke-dasharray:none;stroke-opacity:1"
         id="path2042"
         inkscape:connector-curvature="0" /></g><g
       id="g2044"
       transform="translate(305.4873,667.5439)"><path
         d="m 0,0 c -0.555,-2.903 -3.414,-6.049 -5.739,-7.728 1.574,4.533 2.259,9.5 1.285,14.285 C -0.431,3.843 4.514,2.899 9.299,2.487 6.621,0.965 3.117,-0.508 0,0"
         style="fill:#000000;fill-opacity:1;fill-rule:nonzero;stroke:none"
         id="path2046"
         inkscape:connector-curvature="0" /></g></g></g><g
   id="g2304"><g
     id="g2306"
     clip-path="url(#clipPath2310)"><g
       id="g2312"
       transform="translate(946.7227,512)"><path
         d="M 0,0 33.265,48.973"
         style="fill:none;stroke:#000000;stroke-width:2;stroke-linecap:butt;stroke-linejoin:miter;stroke-miterlimit:10;stroke-dasharray:none;stroke-opacity:1"
         id="path2314"
         inkscape:connector-curvature="0" /></g><g
       id="g2316"
       transform="translate(913.458,463.0273)"><path
         d="M 0,0 29.263,43.082"
         style="fill:none;stroke:#000000;stroke-width:2;stroke-linecap:butt;stroke-linejoin:miter;stroke-miterlimit:10;stroke-dasharray:none;stroke-opacity:1"
         id="path2318"
         inkscape:connector-curvature="0" /></g><g
       id="g2320"
       transform="translate(942.2686,505.4434)"><path
         d="M 0,0 C -2.902,-0.555 -6.881,0.944 -9.299,2.487 -4.505,2.694 0.365,3.888 4.454,6.557 3.414,1.817 4.359,-3.128 5.739,-7.728 3.338,-5.799 0.677,-3.085 0,0"
         style="fill:#000000;fill-opacity:1;fill-rule:nonzero;stroke:none"
         id="path2322"
         inkscape:connector-curvature="0" /></g><g
       id="g2324"
       transform="translate(1014.2646,611.9585)"><path
         d="M 0,0 33.265,48.973"
         style="fill:none;stroke:#000000;stroke-width:2;stroke-linecap:butt;stroke-linejoin:miter;stroke-miterlimit:10;stroke-dasharray:none;stroke-opacity:1"
         id="path2326"
         inkscape:connector-curvature="0" /></g><g
       id="g2328"
       transform="translate(981,562.9858)"><path
         d="M 0,0 29.264,43.082"
         style="fill:none;stroke:#000000;stroke-width:2;stroke-linecap:butt;stroke-linejoin:miter;stroke-miterlimit:10;stroke-dasharray:none;stroke-opacity:1"
         id="path2330"
         inkscape:connector-curvature="0" /></g><g
       id="g2332"
       transform="translate(1009.8115,605.4023)"><path
         d="M 0,0 C -2.903,-0.555 -6.882,0.944 -9.3,2.487 -4.505,2.694 0.364,3.888 4.453,6.556 3.413,1.817 4.358,-3.128 5.739,-7.728 3.337,-5.799 0.676,-3.085 0,0"
         style="fill:#000000;fill-opacity:1;fill-rule:nonzero;stroke:none"
         id="path2334"
         inkscape:connector-curvature="0" /></g><g
       id="g2336"
       transform="translate(1014.2646,512)"><path
         d="M 0,0 -33.265,48.973"
         style="fill:none;stroke:#000000;stroke-width:2;stroke-linecap:butt;stroke-linejoin:miter;stroke-miterlimit:10;stroke-dasharray:none;stroke-opacity:1"
         id="path2338"
         inkscape:connector-curvature="0" /></g><g
       id="g2340"
       transform="translate(1047.5293,463.0273)"><path
         d="M 0,0 -29.264,43.082"
         style="fill:none;stroke:#000000;stroke-width:2;stroke-linecap:butt;stroke-linejoin:miter;stroke-miterlimit:10;stroke-dasharray:none;stroke-opacity:1"
         id="path2342"
         inkscape:connector-curvature="0" /></g><g
       id="g2344"
       transform="translate(1018.7178,505.4434)"><path
         d="m 0,0 c -0.555,-2.902 -3.413,-6.049 -5.739,-7.728 1.574,4.534 2.26,9.5 1.286,14.285 C -0.431,3.843 4.515,2.899 9.3,2.487 6.621,0.966 3.117,-0.508 0,0"
         style="fill:#000000;fill-opacity:1;fill-rule:nonzero;stroke:none"
         id="path2346"
         inkscape:connector-curvature="0" /></g><g
       id="g2348"
       transform="translate(946.6592,611.5557)"><path
         d="M 0,0 -33.265,48.973"
         style="fill:none;stroke:#000000;stroke-width:2;stroke-linecap:butt;stroke-linejoin:miter;stroke-miterlimit:10;stroke-dasharray:none;stroke-opacity:1"
         id="path2350"
         inkscape:connector-curvature="0" /></g><g
       id="g2352"
       transform="translate(979.9238,562.583)"><path
         d="M 0,0 -29.264,43.082"
         style="fill:none;stroke:#000000;stroke-width:2;stroke-linecap:butt;stroke-linejoin:miter;stroke-miterlimit:10;stroke-dasharray:none;stroke-opacity:1"
         id="path2354"
         inkscape:connector-curvature="0" /></g><g
       id="g2356"
       transform="translate(951.1123,604.999)"><path
         d="m 0,0 c -0.555,-2.903 -3.413,-6.049 -5.739,-7.728 1.575,4.533 2.26,9.5 1.286,14.285 C -0.431,3.843 4.515,2.899 9.3,2.487 6.621,0.965 3.117,-0.508 0,0"
         style="fill:#000000;fill-opacity:1;fill-rule:nonzero;stroke:none"
         id="path2358"
         inkscape:connector-curvature="0" /></g></g></g><g
   id="g2404"><g
     transform="translate(263.13376,710.00918)"
     inkscape:label="V^(4)_(_bm_q_,_b"
     id="g2728"><g
       id="g2730" /><g
       id="g2824" /></g><g
     transform="matrix(1.92,0,0,1.92,347.14723,561.35632)"
     inkscape:label="V4"
     id="g3038"><g
       transform="scale(0.1)"
       id="g3040"><path
         inkscape:connector-curvature="0"
         id="path3042"
         style="fill:#000000;fill-opacity:1;fill-rule:nonzero;stroke:none"
         d="m 57.3906,81.5156 c 4.8594,7.75 9.0313,8.0469 12.7032,8.25 1.2031,0.0938 1.2968,1.7969 1.2968,1.8907 0,0.7968 -0.5,1.1875 -1.2968,1.1875 -2.5782,0 -5.4532,-0.2969 -8.1407,-0.2969 -3.2812,0 -6.6562,0.2969 -9.8281,0.2969 -0.6094,0 -1.8906,0 -1.8906,-1.8907 0,-1.0937 0.8906,-1.1875 1.5937,-1.1875 2.6719,-0.2031 4.5625,-1.1875 4.5625,-3.2812 0,-1.4844 -1.4843,-3.6719 -1.4843,-3.7656 l -30.5,-48.4844 -6.75,52.5469 c 0,1.6875 2.2812,2.9843 6.8437,2.9843 1.3906,0 2.4844,0 2.4844,1.9844 0,0.9063 -0.7969,1.0938 -1.3906,1.0938 -3.9688,0 -8.25,-0.2969 -12.3125,-0.2969 -1.7969,0 -3.67192,0.1094 -5.4688,0.1094 -1.78125,0 -3.67187,0.1875 -5.35937,0.1875 -0.70313,0 -1.89063,0 -1.89063,-1.8907 0,-1.1875 0.89063,-1.1875 2.48438,-1.1875 5.5625,0 5.65625,-0.8906 5.95312,-3.375 l 7.8594,-61.2968 c 0.2969,-1.9844 0.6875,-2.2813 1.9844,-2.2813 1.5937,0 1.9843,0.5 2.7812,1.7969 l 35.7656,56.9062" /><path
         inkscape:connector-curvature="0"
         id="path3044"
         style="fill:#000000;fill-opacity:1;fill-rule:nonzero;stroke:none"
         d="M 100.953,119.719 C 87.5938,110.313 84.0781,95.4063 84.0781,84.6406 c 0,-9.9062 2.9532,-25.2968 16.8749,-35.1406 0.563,0 1.406,0 1.406,0.8438 0,0.4218 -0.203,0.5625 -0.703,1.0468 -9.3435,8.4375 -12.7966,20.3907 -12.7966,33.1875 0,18.9849 7.25,28.2499 13.0156,33.4529 0.281,0.282 0.484,0.5 0.484,0.844 0,0.844 -0.843,0.844 -1.406,0.844" /><path
         inkscape:connector-curvature="0"
         id="path3046"
         style="fill:#000000;fill-opacity:1;fill-rule:nonzero;stroke:none"
         d="m 144.188,78.5313 v 2.5312 h -7.797 v 31.3435 c 0,1.485 0,1.969 -1.547,1.969 -0.844,0 -1.125,0 -1.828,-0.984 L 109.734,81.0625 v -2.5312 h 20.672 v -5.7657 c 0,-2.3906 0,-3.2343 -5.687,-3.2343 h -1.906 V 67 c 3.515,0.1406 8.015,0.2813 10.546,0.2813 2.61,0 7.11,-0.1407 10.625,-0.2813 v 2.5313 h -1.906 c -5.687,0 -5.687,0.8437 -5.687,3.2343 v 5.7657 z M 130.906,106.797 V 81.0625 h -18.562 z" /><path
         inkscape:connector-curvature="0"
         id="path3048"
         style="fill:#000000;fill-opacity:1;fill-rule:nonzero;stroke:none"
         d="m 152.328,119.719 c -0.5,0 -1.344,0 -1.344,-0.844 0,-0.344 0.219,-0.562 0.641,-1.047 6.047,-5.562 12.797,-15.047 12.797,-33.1874 0,-14.6875 -4.578,-25.7968 -12.172,-32.6875 -1.187,-1.1875 -1.266,-1.2656 -1.266,-1.6093 0,-0.3594 0.219,-0.8438 0.922,-0.8438 0.844,0 7.516,4.6406 12.157,13.4219 3.093,5.8281 5.14,13.4219 5.14,21.6562 0,9.9063 -2.953,25.3129 -16.875,35.1409" /><path
         inkscape:connector-curvature="0"
         id="path3050"
         style="fill:#000000;fill-opacity:1;fill-rule:nonzero;stroke:none"
         d="m 214.875,1.15625 c 0,0.29688 0,0.5 -1.687,2.1875 -12.407,12.51565 -15.594,31.29685 -15.594,46.48435 0,17.2969 3.781,34.5782 16,47 1.281,1.1875 1.281,1.3907 1.281,1.6875 0,0.6875 -0.391,0.9844 -0.984,0.9844 -1,0 -9.938,-6.75 -15.797,-19.375 -5.063,-10.9219 -6.266,-21.9531 -6.266,-30.2969 0,-7.7343 1.094,-19.7656 6.563,-30.9843 5.953,-12.2188 14.5,-18.671925 15.5,-18.671925 0.593,0 0.984,0.296875 0.984,0.984375" /><path
         inkscape:connector-curvature="0"
         id="path3052"
         style="fill:#000000;fill-opacity:1;fill-rule:nonzero;stroke:none"
         d="m 274.938,68.1094 c 0,0.5 -0.391,1.7969 -1.782,1.7969 -0.109,0 -5.968,-1.3907 -9.047,-4.2813 -1.39,1.5938 -4.765,4.2813 -10.625,4.2813 -17.281,0 -28.015,-15.7032 -28.015,-29.3125 0,-12.2188 9.14,-16.3907 17.39,-16.3907 4.766,0 8.735,1.8907 10.829,3.1875 l -3.782,-15.1093 c -0.39,-1.4844 -0.5,-1.5782 -1.187,-1.6875 -1.094,-0.2032 -2.688,-0.2032 -3.781,-0.2032 -1.688,0 -2.282,0 -2.782,-0.59372 -0.5,-0.59375 -0.797,-2.1875 -0.797,-2.28125 0,-0.59375 0.407,-1.78125 1.985,-1.78125 3.39,0 7.062,0.29687 10.531,0.29687 3.688,0 7.453,-0.29687 11.031,-0.29687 0.703,0 2.578,0 2.578,2.875 0,1.68752 -1.687,1.78122 -2.578,1.78122 -1.39,0 -2.984,0 -4.265,0.1094 z M 255.766,35.625 c -0.5,-1.6875 -0.5,-1.8906 -1.594,-2.875 -3.172,-3.1875 -7.344,-4.9687 -10.828,-4.9687 -6.156,0 -6.656,5.3593 -6.656,7.5468 0,5.1719 3.39,17.3907 4.968,21.2657 3.078,7.25 7.953,9.7343 12.032,9.7343 5.859,0 8.234,-4.6718 8.234,-5.7656 0,-0.3906 -0.094,-1.0937 -0.188,-1.3906 L 255.766,35.625" /><path
         inkscape:connector-curvature="0"
         id="path3054"
         style="fill:#000000;fill-opacity:1;fill-rule:nonzero;stroke:none"
         d="m 298.172,25.0938 c 0,6.5625 -2.484,10.4375 -6.359,10.4375 -3.282,0 -5.266,-2.4844 -5.266,-5.2657 0,-2.6875 1.984,-5.2656 5.266,-5.2656 1.187,0 2.484,0.3906 3.468,1.2969 0.297,0.1875 0.407,0.2969 0.5,0.2969 0.094,0 0.203,-0.1094 0.203,-1.5 0,-7.3438 -3.484,-13.3125 -6.765,-16.57817 -1.094,-1.09375 -1.094,-1.29688 -1.094,-1.59375 0,-0.70313 0.5,-1.09375 1,-1.09375 1.094,0 9.047,7.65627 9.047,19.26567" /><path
         inkscape:connector-curvature="0"
         id="path3056"
         style="fill:#000000;fill-opacity:1;fill-rule:nonzero;stroke:none"
         d="m 376.938,68.1094 c 0,0.5 -0.391,1.7969 -1.782,1.7969 -0.109,0 -5.968,-1.3907 -9.047,-4.2813 -1.39,1.5938 -4.765,4.2813 -10.625,4.2813 -17.281,0 -28.015,-15.7032 -28.015,-29.3125 0,-12.2188 9.14,-16.3907 17.39,-16.3907 4.766,0 8.735,1.8907 10.829,3.1875 l -3.782,-15.1093 c -0.39,-1.4844 -0.5,-1.5782 -1.187,-1.6875 -1.094,-0.2032 -2.688,-0.2032 -3.781,-0.2032 -1.688,0 -2.282,0 -2.782,-0.59372 -0.5,-0.59375 -0.797,-2.1875 -0.797,-2.28125 0,-0.59375 0.407,-1.78125 1.985,-1.78125 3.39,0 7.062,0.29687 10.531,0.29687 3.688,0 7.453,-0.29687 11.031,-0.29687 0.703,0 2.578,0 2.578,2.875 0,1.68752 -1.687,1.78122 -2.578,1.78122 -1.39,0 -2.984,0 -4.265,0.1094 z M 357.766,35.625 c -0.5,-1.6875 -0.5,-1.8906 -1.594,-2.875 -3.172,-3.1875 -7.344,-4.9687 -10.828,-4.9687 -6.156,0 -6.656,5.3593 -6.656,7.5468 0,5.1719 3.39,17.3907 4.968,21.2657 3.078,7.25 7.953,9.7343 12.032,9.7343 5.859,0 8.234,-4.6718 8.234,-5.7656 0,-0.3906 -0.094,-1.0937 -0.188,-1.3906 L 357.766,35.625" /><path
         inkscape:connector-curvature="0"
         id="path3058"
         style="fill:#000000;fill-opacity:1;fill-rule:nonzero;stroke:none"
         d="m 403.547,45.7031 c 0,1.9063 -0.141,1.9688 -2.109,1.9688 -4.5,-4.4219 -10.891,-4.4844 -13.782,-4.4844 v -2.5312 c 1.688,0 6.328,0 10.203,1.9687 V 6.76563 c 0,-2.32813 0,-3.23438 -7.031,-3.23438 h -2.672 V 1 c 1.266,0.0625 9.907,0.28125 12.516,0.28125 2.172,0 11.031,-0.21875 12.578,-0.28125 v 2.53125 h -2.672 c -7.031,0 -7.031,0.90625 -7.031,3.23438 V 45.7031" /><path
         inkscape:connector-curvature="0"
         id="path3060"
         style="fill:#000000;fill-opacity:1;fill-rule:nonzero;stroke:none"
         d="m 445.172,25.0938 c 0,6.5625 -2.484,10.4375 -6.359,10.4375 -3.282,0 -5.266,-2.4844 -5.266,-5.2657 0,-2.6875 1.984,-5.2656 5.266,-5.2656 1.187,0 2.484,0.3906 3.468,1.2969 0.297,0.1875 0.407,0.2969 0.5,0.2969 0.094,0 0.203,-0.1094 0.203,-1.5 0,-7.3438 -3.484,-13.3125 -6.765,-16.57817 -1.094,-1.09375 -1.094,-1.29688 -1.094,-1.59375 0,-0.70313 0.5,-1.09375 1,-1.09375 1.094,0 9.047,7.65627 9.047,19.26567" /><path
         inkscape:connector-curvature="0"
         id="path3062"
         style="fill:#000000;fill-opacity:1;fill-rule:nonzero;stroke:none"
         d="m 522.938,68.1094 c 0,0.5 -0.391,1.7969 -1.782,1.7969 -0.109,0 -5.968,-1.3907 -9.047,-4.2813 -1.39,1.5938 -4.765,4.2813 -10.625,4.2813 -17.281,0 -28.015,-15.7032 -28.015,-29.3125 0,-12.2188 9.14,-16.3907 17.39,-16.3907 4.766,0 8.735,1.8907 10.829,3.1875 l -3.782,-15.1093 c -0.39,-1.4844 -0.5,-1.5782 -1.187,-1.6875 -1.094,-0.2032 -2.688,-0.2032 -3.781,-0.2032 -1.688,0 -2.282,0 -2.782,-0.59372 -0.5,-0.59375 -0.797,-2.1875 -0.797,-2.28125 0,-0.59375 0.407,-1.78125 1.985,-1.78125 3.39,0 7.062,0.29687 10.531,0.29687 3.688,0 7.453,-0.29687 11.031,-0.29687 0.703,0 2.578,0 2.578,2.875 0,1.68752 -1.687,1.78122 -2.578,1.78122 -1.39,0 -2.984,0 -4.265,0.1094 z M 503.766,35.625 c -0.5,-1.6875 -0.5,-1.8906 -1.594,-2.875 -3.172,-3.1875 -7.344,-4.9687 -10.828,-4.9687 -6.156,0 -6.656,5.3593 -6.656,7.5468 0,5.1719 3.39,17.3907 4.968,21.2657 3.078,7.25 7.953,9.7343 12.032,9.7343 5.859,0 8.234,-4.6718 8.234,-5.7656 0,-0.3906 -0.094,-1.0937 -0.188,-1.3906 L 503.766,35.625" /><path
         inkscape:connector-curvature="0"
         id="path3064"
         style="fill:#000000;fill-opacity:1;fill-rule:nonzero;stroke:none"
         d="m 562.5,13.7969 h -2.391 C 559.906,12.25 559.203,8.09375 558.281,7.39063 557.719,6.96875 552.313,6.96875 551.328,6.96875 h -12.937 c 7.375,6.54685 9.843,8.51565 14.062,11.81255 5.203,4.1562 10.047,8.5156 10.047,15.1875 0,8.5156 -7.453,13.7031 -16.453,13.7031 -8.719,0 -14.625,-6.1094 -14.625,-12.5781 0,-3.5782 3.031,-3.9375 3.734,-3.9375 1.688,0 3.719,1.2031 3.719,3.7343 0,1.2657 -0.484,3.7188 -4.141,3.7188 2.172,5 6.954,6.5469 10.266,6.5469 7.031,0 10.688,-5.4844 10.688,-11.1875 0,-6.1094 -4.36,-10.9688 -6.61,-13.5 L 532.125,3.73438 C 531.422,3.10938 531.422,2.96875 531.422,1 h 28.969 l 2.109,12.7969" /><path
         inkscape:connector-curvature="0"
         id="path3066"
         style="fill:#000000;fill-opacity:1;fill-rule:nonzero;stroke:none"
         d="m 591.078,62.5469 c 0,2.8906 -2.39,5.2656 -5.265,5.2656 -2.891,0 -5.266,-2.375 -5.266,-5.2656 0,-2.875 2.375,-5.2656 5.266,-5.2656 2.875,0 5.265,2.3906 5.265,5.2656 z m -1.89,-36.4531 c 0,-2.7813 0,-10.5313 -6.36,-17.87505 -0.703,-0.79687 -0.703,-1 -0.703,-1.29687 0,-0.70313 0.5,-1.09375 1,-1.09375 1.094,0 8.25,7.95317 8.25,19.46877 0,2.875 -0.203,10.2344 -5.562,10.2344 -3.485,0 -5.266,-2.6875 -5.266,-5.2657 0,-2.5781 1.687,-5.2656 5.266,-5.2656 0.484,0 0.687,0 0.796,0.0938 0.688,0.1093 1.782,0.2968 2.579,1" /><path
         inkscape:connector-curvature="0"
         id="path3068"
         style="fill:#000000;fill-opacity:1;fill-rule:nonzero;stroke:none"
         d="m 660.016,59.875 c 0,9.4219 2.578,27.5156 15.687,27.5156 3.078,0 9.141,-1.5 9.844,-7.6562 0.094,-0.8906 0.187,-1.5938 1.484,-1.5938 1.594,0 1.594,0.9063 1.594,1.6875 0,5.9688 -3.969,15.2032 -13.016,15.2032 -10.328,0 -17.578,-9.0313 -19.968,-24.1407 h -0.094 c -0.703,4.2813 -4.172,24.1407 -19.969,24.1407 -9.047,0 -13.015,-9.2344 -13.015,-15.2032 0,-0.7812 0,-1.6875 1.593,-1.6875 1.391,0 1.391,0.7969 1.485,1.2969 0.797,7.9531 9.343,7.9531 9.843,7.9531 13.704,0 15.688,-19.5781 15.688,-27.5156 V 32.8438 c 0,-3.375 0,-4.7657 -9.438,-4.7657 h -3.281 V 25 c 3.578,0.2969 13.016,0.2969 17.094,0.2969 4.062,0 13.609,0 17.187,-0.2969 v 3.0781 h -3.281 c -9.437,0 -9.437,1.2969 -9.437,4.7657 V 59.875" /><path
         inkscape:connector-curvature="0"
         id="path3070"
         style="fill:#000000;fill-opacity:1;fill-rule:nonzero;stroke:none"
         d="m 717.781,53.9375 c 0,1.125 -0.843,2.6719 -2.812,2.6719 -1.906,0 -3.938,-1.8281 -3.938,-3.8594 0,-1.2031 0.907,-2.6719 2.813,-2.6719 2.031,0 3.937,1.9688 3.937,3.8594 z M 703.438,18.2188 c -0.282,-0.9063 -0.641,-1.75 -0.641,-2.9532 0,-3.2968 2.812,-5.96872 6.687,-5.96872 7.032,0 10.125,9.70312 10.125,10.75002 0,0.9219 -0.921,0.9219 -1.125,0.9219 -0.984,0 -1.062,-0.4219 -1.343,-1.2032 -1.61,-5.625 -4.703,-8.5 -7.453,-8.5 -1.407,0 -1.75,0.9063 -1.75,2.4532 0,1.625 0.484,2.9531 1.125,4.5 0.703,1.9062 1.468,3.7968 2.25,5.625 0.625,1.6875 3.156,8.0937 3.437,8.9375 0.219,0.7031 0.422,1.5468 0.422,2.25 0,3.2968 -2.813,5.9687 -6.672,5.9687 -6.969,0 -10.203,-9.5625 -10.203,-10.75 0,-0.9219 0.984,-0.9219 1.203,-0.9219 0.984,0 1.047,0.3594 1.266,1.125 1.828,6.0469 4.922,8.5782 7.515,8.5782 1.125,0 1.766,-0.5625 1.766,-2.4532 0,-1.625 -0.422,-2.6718 -2.188,-7.0312 l -4.421,-11.3281" /><path
         inkscape:connector-curvature="0"
         id="path3072"
         style="fill:#000000;fill-opacity:1;fill-rule:nonzero;stroke:none"
         d="m 755.703,49.8281 c 0,7.75 -1.094,19.7813 -6.547,31 -5.968,12.2188 -14.5,18.6719 -15.5,18.6719 -0.593,0 -1,-0.3906 -1,-0.9844 0,-0.2968 0,-0.5 1.891,-2.2968 9.734,-9.8282 15.406,-25.625 15.406,-46.3907 0,-16.9843 -3.687,-34.4687 -16,-46.98435 -1.297,-1.1875 -1.297,-1.39062 -1.297,-1.6875 0,-0.59375 0.407,-0.984375 1,-0.984375 1,0 9.938,6.750005 15.797,19.359425 5.063,10.9375 6.25,21.9531 6.25,30.2968" /></g></g><g
     transform="matrix(2.4,0,0,2.4,1010.6332,545.13296)"
     inkscape:label="V4eff"
     id="g3100"><g
       transform="scale(0.1)"
       id="g3102"><path
         inkscape:connector-curvature="0"
         id="path3104"
         style="fill:#000000;fill-opacity:1;fill-rule:nonzero;stroke:none"
         d="m 57.3906,81.5156 c 4.8594,7.75 9.0313,8.0469 12.7032,8.25 1.2031,0.0938 1.2968,1.7969 1.2968,1.8907 0,0.7968 -0.5,1.1875 -1.2968,1.1875 -2.5782,0 -5.4532,-0.2969 -8.1407,-0.2969 -3.2812,0 -6.6562,0.2969 -9.8281,0.2969 -0.6094,0 -1.8906,0 -1.8906,-1.8907 0,-1.0937 0.8906,-1.1875 1.5937,-1.1875 2.6719,-0.2031 4.5625,-1.1875 4.5625,-3.2812 0,-1.4844 -1.4843,-3.6719 -1.4843,-3.7656 l -30.5,-48.4844 -6.75,52.5469 c 0,1.6875 2.2812,2.9843 6.8437,2.9843 1.3906,0 2.4844,0 2.4844,1.9844 0,0.9063 -0.7969,1.0938 -1.3906,1.0938 -3.9688,0 -8.25,-0.2969 -12.3125,-0.2969 -1.7969,0 -3.67192,0.1094 -5.4688,0.1094 -1.78125,0 -3.67187,0.1875 -5.35937,0.1875 -0.70313,0 -1.89063,0 -1.89063,-1.8907 0,-1.1875 0.89063,-1.1875 2.48438,-1.1875 5.5625,0 5.65625,-0.8906 5.95312,-3.375 l 7.8594,-61.2968 c 0.2969,-1.9844 0.6875,-2.2813 1.9844,-2.2813 1.5937,0 1.9843,0.5 2.7812,1.7969 l 35.7656,56.9062" /><path
         inkscape:connector-curvature="0"
         id="path3106"
         style="fill:#000000;fill-opacity:1;fill-rule:nonzero;stroke:none"
         d="M 100.953,119.719 C 87.5938,110.313 84.0781,95.4063 84.0781,84.6406 c 0,-9.9062 2.9532,-25.2968 16.8749,-35.1406 0.563,0 1.406,0 1.406,0.8438 0,0.4218 -0.203,0.5625 -0.703,1.0468 -9.3435,8.4375 -12.7966,20.3907 -12.7966,33.1875 0,18.9849 7.25,28.2499 13.0156,33.4529 0.281,0.282 0.484,0.5 0.484,0.844 0,0.844 -0.843,0.844 -1.406,0.844" /><path
         inkscape:connector-curvature="0"
         id="path3108"
         style="fill:#000000;fill-opacity:1;fill-rule:nonzero;stroke:none"
         d="m 144.188,78.5313 v 2.5312 h -7.797 v 31.3435 c 0,1.485 0,1.969 -1.547,1.969 -0.844,0 -1.125,0 -1.828,-0.984 L 109.734,81.0625 v -2.5312 h 20.672 v -5.7657 c 0,-2.3906 0,-3.2343 -5.687,-3.2343 h -1.906 V 67 c 3.515,0.1406 8.015,0.2813 10.546,0.2813 2.61,0 7.11,-0.1407 10.625,-0.2813 v 2.5313 h -1.906 c -5.687,0 -5.687,0.8437 -5.687,3.2343 v 5.7657 z M 130.906,106.797 V 81.0625 h -18.562 z" /><path
         inkscape:connector-curvature="0"
         id="path3110"
         style="fill:#000000;fill-opacity:1;fill-rule:nonzero;stroke:none"
         d="m 152.328,119.719 c -0.5,0 -1.344,0 -1.344,-0.844 0,-0.344 0.219,-0.562 0.641,-1.047 6.047,-5.562 12.797,-15.047 12.797,-33.1874 0,-14.6875 -4.578,-25.7968 -12.172,-32.6875 -1.187,-1.1875 -1.266,-1.2656 -1.266,-1.6093 0,-0.3594 0.219,-0.8438 0.922,-0.8438 0.844,0 7.516,4.6406 12.157,13.4219 3.093,5.8281 5.14,13.4219 5.14,21.6562 0,9.9063 -2.953,25.3129 -16.875,35.1409" /><path
         inkscape:connector-curvature="0"
         id="path3112"
         style="fill:#000000;fill-opacity:1;fill-rule:nonzero;stroke:none"
         d="m 192.828,68.125 c 0,-3.8594 -0.703,-8.3594 -5.484,-12.8594 -0.281,-0.2812 -0.485,-0.5 -0.485,-0.8437 0,-0.5 0.563,-0.9844 0.985,-0.9844 0.984,0 6.953,5.625 6.953,13.9844 0,4.3594 -1.688,7.6562 -4.922,7.6562 -2.312,0 -4,-1.8281 -4,-4 0,-2.25 1.609,-4.0781 4.078,-4.0781 1.688,0 2.813,1.125 2.875,1.125" /><path
         inkscape:connector-curvature="0"
         id="path3114"
         style="fill:#000000;fill-opacity:1;fill-rule:nonzero;stroke:none"
         d="m 232.938,83.0313 c 1.468,0 1.968,0 1.968,1.5468 0,6.1875 -3.453,13.7813 -13.922,13.7813 -9.218,0 -16.25,-7.3125 -16.25,-15.9688 0,-8.9218 7.813,-16.0937 17.157,-16.0937 9.5,0 13.015,7.5937 13.015,9.1406 0,0.2813 -0.14,0.9844 -1.203,0.9844 -0.906,0 -1.047,-0.4219 -1.265,-1.125 -2.172,-5.7031 -7.516,-6.75 -10.047,-6.75 -3.313,0 -6.469,1.4687 -8.578,4.1406 -2.61,3.3125 -2.672,7.5938 -2.672,10.3438 z m -21.735,1.8281 c 0.781,9.9062 7.11,11.5312 9.781,11.5312 8.641,0 8.922,-9.7812 9,-11.5312 h -18.781" /><path
         inkscape:connector-curvature="0"
         id="path3116"
         style="fill:#000000;fill-opacity:1;fill-rule:nonzero;stroke:none"
         d="m 274.703,94.7656 h 8.844 v 2.5313 h -9.125 v 7.8751 c 0,6.328 3.719,9.344 6.891,9.344 0.625,0 1.328,-0.141 2.031,-0.344 -0.985,-0.563 -1.547,-1.688 -1.547,-2.813 0,-1.89 1.328,-3.234 3.234,-3.234 1.891,0 3.235,1.344 3.235,3.234 0,3.016 -3.032,5.125 -6.891,5.125 -2.531,0 -5.625,-0.765 -8.156,-2.953 -2.313,2.532 -6.469,2.953 -9.203,2.953 -7.672,0 -17.297,-3.515 -17.297,-11.453 v -7.7341 h -6.047 v -2.5313 h 6.047 V 72.5469 c 0,-3.0156 -0.703,-3.0156 -5.281,-3.0156 V 67 c 0.14,0 5.062,0.2813 7.875,0.2813 2.671,0 5.281,-0.0782 7.953,-0.2813 v 2.5313 c -4.578,0 -5.282,0 -5.282,3.0156 v 22.2187 h 17.438 V 72.5469 c 0,-3.0156 -0.703,-3.0156 -5.266,-3.0156 V 67 c 0.344,0 5.125,0.2813 8.016,0.2813 3.016,0 6.109,-0.1407 9.141,-0.2813 v 2.5313 h -1.407 c -5.203,0 -5.203,0.7656 -5.203,3.1562 z m -23,2.5313 v 7.6721 c 0,6.812 6.891,9.547 12.094,9.547 0.641,0 3.656,0 5.984,-1.125 -0.781,-0.282 -1.968,-1.188 -1.968,-3.016 0,-0.984 0.343,-2.172 1.75,-2.875 -0.141,-0.703 -0.141,-1.625 -0.141,-2.328 v -7.8751 h -17.719" /><path
         inkscape:connector-curvature="0"
         id="path3118"
         style="fill:#000000;fill-opacity:1;fill-rule:nonzero;stroke:none"
         d="m 321.875,1.15625 c 0,0.29688 0,0.5 -1.687,2.1875 -12.407,12.51565 -15.594,31.29685 -15.594,46.48435 0,17.2969 3.781,34.5782 16,47 1.281,1.1875 1.281,1.3907 1.281,1.6875 0,0.6875 -0.391,0.9844 -0.984,0.9844 -1,0 -9.938,-6.75 -15.797,-19.375 -5.063,-10.9219 -6.266,-21.9531 -6.266,-30.2969 0,-7.7343 1.094,-19.7656 6.563,-30.9843 5.953,-12.2188 14.5,-18.671925 15.5,-18.671925 0.593,0 0.984,0.296875 0.984,0.984375" /><path
         inkscape:connector-curvature="0"
         id="path3120"
         style="fill:#000000;fill-opacity:1;fill-rule:nonzero;stroke:none"
         d="m 381.938,68.1094 c 0,0.5 -0.391,1.7969 -1.782,1.7969 -0.109,0 -5.968,-1.3907 -9.047,-4.2813 -1.39,1.5938 -4.765,4.2813 -10.625,4.2813 -17.281,0 -28.015,-15.7032 -28.015,-29.3125 0,-12.2188 9.14,-16.3907 17.39,-16.3907 4.766,0 8.735,1.8907 10.829,3.1875 l -3.782,-15.1093 c -0.39,-1.4844 -0.5,-1.5782 -1.187,-1.6875 -1.094,-0.2032 -2.688,-0.2032 -3.781,-0.2032 -1.688,0 -2.282,0 -2.782,-0.59372 -0.5,-0.59375 -0.797,-2.1875 -0.797,-2.28125 0,-0.59375 0.407,-1.78125 1.985,-1.78125 3.39,0 7.062,0.29687 10.531,0.29687 3.688,0 7.453,-0.29687 11.031,-0.29687 0.703,0 2.578,0 2.578,2.875 0,1.68752 -1.687,1.78122 -2.578,1.78122 -1.39,0 -2.984,0 -4.265,0.1094 z M 362.766,35.625 c -0.5,-1.6875 -0.5,-1.8906 -1.594,-2.875 -3.172,-3.1875 -7.344,-4.9687 -10.828,-4.9687 -6.156,0 -6.656,5.3593 -6.656,7.5468 0,5.1719 3.39,17.3907 4.968,21.2657 3.078,7.25 7.953,9.7343 12.032,9.7343 5.859,0 8.234,-4.6718 8.234,-5.7656 0,-0.3906 -0.094,-1.0937 -0.188,-1.3906 L 362.766,35.625" /><path
         inkscape:connector-curvature="0"
         id="path3122"
         style="fill:#000000;fill-opacity:1;fill-rule:nonzero;stroke:none"
         d="m 405.172,25.0938 c 0,6.5625 -2.484,10.4375 -6.359,10.4375 -3.282,0 -5.266,-2.4844 -5.266,-5.2657 0,-2.6875 1.984,-5.2656 5.266,-5.2656 1.187,0 2.484,0.3906 3.468,1.2969 0.297,0.1875 0.407,0.2969 0.5,0.2969 0.094,0 0.203,-0.1094 0.203,-1.5 0,-7.3438 -3.484,-13.3125 -6.765,-16.57817 -1.094,-1.09375 -1.094,-1.29688 -1.094,-1.59375 0,-0.70313 0.5,-1.09375 1,-1.09375 1.094,0 9.047,7.65627 9.047,19.26567" /><path
         inkscape:connector-curvature="0"
         id="path3124"
         style="fill:#000000;fill-opacity:1;fill-rule:nonzero;stroke:none"
         d="m 483.938,68.1094 c 0,0.5 -0.391,1.7969 -1.782,1.7969 -0.109,0 -5.968,-1.3907 -9.047,-4.2813 -1.39,1.5938 -4.765,4.2813 -10.625,4.2813 -17.281,0 -28.015,-15.7032 -28.015,-29.3125 0,-12.2188 9.14,-16.3907 17.39,-16.3907 4.766,0 8.735,1.8907 10.829,3.1875 l -3.782,-15.1093 c -0.39,-1.4844 -0.5,-1.5782 -1.187,-1.6875 -1.094,-0.2032 -2.688,-0.2032 -3.781,-0.2032 -1.688,0 -2.282,0 -2.782,-0.59372 -0.5,-0.59375 -0.797,-2.1875 -0.797,-2.28125 0,-0.59375 0.407,-1.78125 1.985,-1.78125 3.39,0 7.062,0.29687 10.531,0.29687 3.688,0 7.453,-0.29687 11.031,-0.29687 0.703,0 2.578,0 2.578,2.875 0,1.68752 -1.687,1.78122 -2.578,1.78122 -1.39,0 -2.984,0 -4.265,0.1094 z M 464.766,35.625 c -0.5,-1.6875 -0.5,-1.8906 -1.594,-2.875 -3.172,-3.1875 -7.344,-4.9687 -10.828,-4.9687 -6.156,0 -6.656,5.3593 -6.656,7.5468 0,5.1719 3.39,17.3907 4.968,21.2657 3.078,7.25 7.953,9.7343 12.032,9.7343 5.859,0 8.234,-4.6718 8.234,-5.7656 0,-0.3906 -0.094,-1.0937 -0.188,-1.3906 L 464.766,35.625" /><path
         inkscape:connector-curvature="0"
         id="path3126"
         style="fill:#000000;fill-opacity:1;fill-rule:nonzero;stroke:none"
         d="m 510.547,45.7031 c 0,1.9063 -0.141,1.9688 -2.109,1.9688 -4.5,-4.4219 -10.891,-4.4844 -13.782,-4.4844 v -2.5312 c 1.688,0 6.328,0 10.203,1.9687 V 6.76563 c 0,-2.32813 0,-3.23438 -7.031,-3.23438 h -2.672 V 1 c 1.266,0.0625 9.907,0.28125 12.516,0.28125 2.172,0 11.031,-0.21875 12.578,-0.28125 v 2.53125 h -2.672 c -7.031,0 -7.031,0.90625 -7.031,3.23438 V 45.7031" /><path
         inkscape:connector-curvature="0"
         id="path3128"
         style="fill:#000000;fill-opacity:1;fill-rule:nonzero;stroke:none"
         d="m 553.172,25.0938 c 0,6.5625 -2.484,10.4375 -6.359,10.4375 -3.282,0 -5.266,-2.4844 -5.266,-5.2657 0,-2.6875 1.984,-5.2656 5.266,-5.2656 1.187,0 2.484,0.3906 3.468,1.2969 0.297,0.1875 0.407,0.2969 0.5,0.2969 0.094,0 0.203,-0.1094 0.203,-1.5 0,-7.3438 -3.484,-13.3125 -6.765,-16.57817 -1.094,-1.09375 -1.094,-1.29688 -1.094,-1.59375 0,-0.70313 0.5,-1.09375 1,-1.09375 1.094,0 9.047,7.65627 9.047,19.26567" /><path
         inkscape:connector-curvature="0"
         id="path3130"
         style="fill:#000000;fill-opacity:1;fill-rule:nonzero;stroke:none"
         d="m 630.938,68.1094 c 0,0.5 -0.391,1.7969 -1.782,1.7969 -0.109,0 -5.968,-1.3907 -9.047,-4.2813 -1.39,1.5938 -4.765,4.2813 -10.625,4.2813 -17.281,0 -28.015,-15.7032 -28.015,-29.3125 0,-12.2188 9.14,-16.3907 17.39,-16.3907 4.766,0 8.735,1.8907 10.829,3.1875 l -3.782,-15.1093 c -0.39,-1.4844 -0.5,-1.5782 -1.187,-1.6875 -1.094,-0.2032 -2.688,-0.2032 -3.781,-0.2032 -1.688,0 -2.282,0 -2.782,-0.59372 -0.5,-0.59375 -0.797,-2.1875 -0.797,-2.28125 0,-0.59375 0.407,-1.78125 1.985,-1.78125 3.39,0 7.062,0.29687 10.531,0.29687 3.688,0 7.453,-0.29687 11.031,-0.29687 0.703,0 2.578,0 2.578,2.875 0,1.68752 -1.687,1.78122 -2.578,1.78122 -1.39,0 -2.984,0 -4.265,0.1094 z M 611.766,35.625 c -0.5,-1.6875 -0.5,-1.8906 -1.594,-2.875 -3.172,-3.1875 -7.344,-4.9687 -10.828,-4.9687 -6.156,0 -6.656,5.3593 -6.656,7.5468 0,5.1719 3.39,17.3907 4.968,21.2657 3.078,7.25 7.953,9.7343 12.032,9.7343 5.859,0 8.234,-4.6718 8.234,-5.7656 0,-0.3906 -0.094,-1.0937 -0.188,-1.3906 L 611.766,35.625" /><path
         inkscape:connector-curvature="0"
         id="path3132"
         style="fill:#000000;fill-opacity:1;fill-rule:nonzero;stroke:none"
         d="m 670.5,13.7969 h -2.391 C 667.906,12.25 667.203,8.09375 666.281,7.39063 665.719,6.96875 660.313,6.96875 659.328,6.96875 h -12.937 c 7.375,6.54685 9.843,8.51565 14.062,11.81255 5.203,4.1562 10.047,8.5156 10.047,15.1875 0,8.5156 -7.453,13.7031 -16.453,13.7031 -8.719,0 -14.625,-6.1094 -14.625,-12.5781 0,-3.5782 3.031,-3.9375 3.734,-3.9375 1.688,0 3.719,1.2031 3.719,3.7343 0,1.2657 -0.484,3.7188 -4.141,3.7188 2.172,5 6.954,6.5469 10.266,6.5469 7.031,0 10.688,-5.4844 10.688,-11.1875 0,-6.1094 -4.36,-10.9688 -6.61,-13.5 L 640.125,3.73438 C 639.422,3.10938 639.422,2.96875 639.422,1 h 28.969 l 2.109,12.7969" /><path
         inkscape:connector-curvature="0"
         id="path3134"
         style="fill:#000000;fill-opacity:1;fill-rule:nonzero;stroke:none"
         d="m 698.078,62.5469 c 0,2.8906 -2.39,5.2656 -5.265,5.2656 -2.891,0 -5.266,-2.375 -5.266,-5.2656 0,-2.875 2.375,-5.2656 5.266,-5.2656 2.875,0 5.265,2.3906 5.265,5.2656 z m -1.89,-36.4531 c 0,-2.7813 0,-10.5313 -6.36,-17.87505 -0.703,-0.79687 -0.703,-1 -0.703,-1.29687 0,-0.70313 0.5,-1.09375 1,-1.09375 1.094,0 8.25,7.95317 8.25,19.46877 0,2.875 -0.203,10.2344 -5.562,10.2344 -3.485,0 -5.266,-2.6875 -5.266,-5.2657 0,-2.5781 1.687,-5.2656 5.266,-5.2656 0.484,0 0.687,0 0.796,0.0938 0.688,0.1093 1.782,0.2968 2.579,1" /><path
         inkscape:connector-curvature="0"
         id="path3136"
         style="fill:#000000;fill-opacity:1;fill-rule:nonzero;stroke:none"
         d="m 767.016,59.875 c 0,9.4219 2.578,27.5156 15.687,27.5156 3.078,0 9.141,-1.5 9.844,-7.6562 0.094,-0.8906 0.187,-1.5938 1.484,-1.5938 1.594,0 1.594,0.9063 1.594,1.6875 0,5.9688 -3.969,15.2032 -13.016,15.2032 -10.328,0 -17.578,-9.0313 -19.968,-24.1407 h -0.094 c -0.703,4.2813 -4.172,24.1407 -19.969,24.1407 -9.047,0 -13.015,-9.2344 -13.015,-15.2032 0,-0.7812 0,-1.6875 1.593,-1.6875 1.391,0 1.391,0.7969 1.485,1.2969 0.797,7.9531 9.343,7.9531 9.843,7.9531 13.704,0 15.688,-19.5781 15.688,-27.5156 V 32.8438 c 0,-3.375 0,-4.7657 -9.438,-4.7657 h -3.281 V 25 c 3.578,0.2969 13.016,0.2969 17.094,0.2969 4.062,0 13.609,0 17.187,-0.2969 v 3.0781 h -3.281 c -9.437,0 -9.437,1.2969 -9.437,4.7657 V 59.875" /><path
         inkscape:connector-curvature="0"
         id="path3138"
         style="fill:#000000;fill-opacity:1;fill-rule:nonzero;stroke:none"
         d="m 824.781,53.9375 c 0,1.125 -0.843,2.6719 -2.812,2.6719 -1.906,0 -3.938,-1.8281 -3.938,-3.8594 0,-1.2031 0.907,-2.6719 2.813,-2.6719 2.031,0 3.937,1.9688 3.937,3.8594 z M 810.438,18.2188 c -0.282,-0.9063 -0.641,-1.75 -0.641,-2.9532 0,-3.2968 2.812,-5.96872 6.687,-5.96872 7.032,0 10.125,9.70312 10.125,10.75002 0,0.9219 -0.921,0.9219 -1.125,0.9219 -0.984,0 -1.062,-0.4219 -1.343,-1.2032 -1.61,-5.625 -4.703,-8.5 -7.453,-8.5 -1.407,0 -1.75,0.9063 -1.75,2.4532 0,1.625 0.484,2.9531 1.125,4.5 0.703,1.9062 1.468,3.7968 2.25,5.625 0.625,1.6875 3.156,8.0937 3.437,8.9375 0.219,0.7031 0.422,1.5468 0.422,2.25 0,3.2968 -2.813,5.9687 -6.672,5.9687 -6.969,0 -10.203,-9.5625 -10.203,-10.75 0,-0.9219 0.984,-0.9219 1.203,-0.9219 0.984,0 1.047,0.3594 1.266,1.125 1.828,6.0469 4.922,8.5782 7.515,8.5782 1.125,0 1.766,-0.5625 1.766,-2.4532 0,-1.625 -0.422,-2.6718 -2.188,-7.0312 l -4.421,-11.3281" /><path
         inkscape:connector-curvature="0"
         id="path3140"
         style="fill:#000000;fill-opacity:1;fill-rule:nonzero;stroke:none"
         d="m 862.703,49.8281 c 0,7.75 -1.094,19.7813 -6.547,31 -5.968,12.2188 -14.5,18.6719 -15.5,18.6719 -0.593,0 -1,-0.3906 -1,-0.9844 0,-0.2968 0,-0.5 1.891,-2.2968 9.734,-9.8282 15.406,-25.625 15.406,-46.3907 0,-16.9843 -3.687,-34.4687 -16,-46.98435 -1.297,-1.1875 -1.297,-1.39062 -1.297,-1.6875 0,-0.59375 0.407,-0.984375 1,-0.984375 1,0 9.938,6.750005 15.797,19.359425 5.063,10.9375 6.25,21.9531 6.25,30.2968" /></g></g><g
     transform="matrix(3.5,0,0,3.5,181.33067,381.42001)"
     inkscape:label="in1"
     id="g1247"><g
       transform="scale(0.1)"
       id="g1249"><path
         inkscape:connector-curvature="0"
         id="path1251"
         style="fill:#000000;fill-opacity:1;fill-rule:nonzero;stroke:none"
         d="m 24.875,1.15625 c 0,0.29688 0,0.5 -1.6875,2.1875 C 10.7813,15.8594 7.59375,34.6406 7.59375,49.8281 c 0,17.2969 3.78125,34.5782 16.00005,47 1.2812,1.1875 1.2812,1.3907 1.2812,1.6875 0,0.6875 -0.3906,0.9844 -0.9844,0.9844 -1,0 -9.9375,-6.75 -15.79685,-19.375 C 3.03125,69.2031 1.82813,58.1719 1.82813,49.8281 c 0,-7.7343 1.09375,-19.7656 6.5625,-30.9843 C 14.3438,6.625 22.8906,0.171875 23.8906,0.171875 c 0.5938,0 0.9844,0.296875 0.9844,0.984375" /><path
         inkscape:connector-curvature="0"
         id="path1253"
         style="fill:#000000;fill-opacity:1;fill-rule:nonzero;stroke:none"
         d="m 83.9375,68.1094 c 0,0.5 -0.3906,1.7969 -1.7812,1.7969 -0.1094,0 -5.9688,-1.3907 -9.0469,-4.2813 -1.3906,1.5938 -4.7656,4.2813 -10.625,4.2813 -17.2813,0 -28.0156,-15.7032 -28.0156,-29.3125 0,-12.2188 9.1406,-16.3907 17.3906,-16.3907 4.7656,0 8.7344,1.8907 10.8281,3.1875 L 58.9063,12.2813 c -0.3907,-1.4844 -0.5,-1.5782 -1.1875,-1.6875 -1.0938,-0.2032 -2.6875,-0.2032 -3.7813,-0.2032 -1.6875,0 -2.2812,0 -2.7812,-0.59372 -0.5,-0.59375 -0.7969,-2.1875 -0.7969,-2.28125 0,-0.59375 0.4062,-1.78125 1.9844,-1.78125 3.3906,0 7.0625,0.29687 10.5312,0.29687 3.6875,0 7.4531,-0.29687 11.0313,-0.29687 0.7031,0 2.5781,0 2.5781,2.875 0,1.68752 -1.6875,1.78122 -2.5781,1.78122 -1.3907,0 -2.9844,0 -4.2657,0.1094 z M 64.7656,35.625 c -0.5,-1.6875 -0.5,-1.8906 -1.5937,-2.875 C 60,29.5625 55.8281,27.7813 52.3438,27.7813 c -6.1563,0 -6.6563,5.3593 -6.6563,7.5468 0,5.1719 3.3906,17.3907 4.9688,21.2657 3.0781,7.25 7.9531,9.7343 12.0312,9.7343 5.8594,0 8.2344,-4.6718 8.2344,-5.7656 0,-0.3906 -0.0938,-1.0937 -0.1875,-1.3906 L 64.7656,35.625" /><path
         inkscape:connector-curvature="0"
         id="path1255"
         style="fill:#000000;fill-opacity:1;fill-rule:nonzero;stroke:none"
         d="m 150.625,47.8438 h 27.719 c 1.39,0 3.281,0 3.281,1.9843 0,2 -1.891,2 -3.281,2 h -27.719 v 27.8125 c 0,1.3907 0,3.2657 -1.984,3.2657 -1.985,0 -1.985,-1.875 -1.985,-3.2657 V 51.8281 h -27.812 c -1.391,0 -3.281,0 -3.281,-2 0,-1.9843 1.89,-1.9843 3.281,-1.9843 h 27.812 V 20.0313 c 0,-1.3907 0,-3.2813 1.985,-3.2813 1.984,0 1.984,1.8906 1.984,3.2813 v 27.8125" /><path
         inkscape:connector-curvature="0"
         id="path1257"
         style="fill:#000000;fill-opacity:1;fill-rule:nonzero;stroke:none"
         d="m 263.938,68.1094 c 0,0.5 -0.391,1.7969 -1.782,1.7969 -0.109,0 -5.968,-1.3907 -9.047,-4.2813 -1.39,1.5938 -4.765,4.2813 -10.625,4.2813 -17.281,0 -28.015,-15.7032 -28.015,-29.3125 0,-12.2188 9.14,-16.3907 17.39,-16.3907 4.766,0 8.735,1.8907 10.829,3.1875 l -3.782,-15.1093 c -0.39,-1.4844 -0.5,-1.5782 -1.187,-1.6875 -1.094,-0.2032 -2.688,-0.2032 -3.781,-0.2032 -1.688,0 -2.282,0 -2.782,-0.59372 -0.5,-0.59375 -0.797,-2.1875 -0.797,-2.28125 0,-0.59375 0.407,-1.78125 1.985,-1.78125 3.39,0 7.062,0.29687 10.531,0.29687 3.688,0 7.453,-0.29687 11.031,-0.29687 0.703,0 2.578,0 2.578,2.875 0,1.68752 -1.687,1.78122 -2.578,1.78122 -1.39,0 -2.984,0 -4.265,0.1094 z M 244.766,35.625 c -0.5,-1.6875 -0.5,-1.8906 -1.594,-2.875 -3.172,-3.1875 -7.344,-4.9687 -10.828,-4.9687 -6.156,0 -6.656,5.3593 -6.656,7.5468 0,5.1719 3.39,17.3907 4.968,21.2657 3.078,7.25 7.953,9.7343 12.032,9.7343 5.859,0 8.234,-4.6718 8.234,-5.7656 0,-0.3906 -0.094,-1.0937 -0.188,-1.3906 L 244.766,35.625" /><path
         inkscape:connector-curvature="0"
         id="path1259"
         style="fill:#000000;fill-opacity:1;fill-rule:nonzero;stroke:none"
         d="m 291.547,45.7031 c 0,1.9063 -0.141,1.9688 -2.109,1.9688 -4.5,-4.4219 -10.891,-4.4844 -13.782,-4.4844 v -2.5312 c 1.688,0 6.328,0 10.203,1.9687 V 6.76563 c 0,-2.32813 0,-3.23438 -7.031,-3.23438 h -2.672 V 1 c 1.266,0.0625 9.907,0.28125 12.516,0.28125 2.172,0 11.031,-0.21875 12.578,-0.28125 v 2.53125 h -2.672 c -7.031,0 -7.031,0.90625 -7.031,3.23438 V 45.7031" /><path
         inkscape:connector-curvature="0"
         id="path1261"
         style="fill:#000000;fill-opacity:1;fill-rule:nonzero;stroke:none"
         d="m 332.172,25.0938 c 0,6.5625 -2.484,10.4375 -6.359,10.4375 -3.282,0 -5.266,-2.4844 -5.266,-5.2657 0,-2.6875 1.984,-5.2656 5.266,-5.2656 1.187,0 2.484,0.3906 3.468,1.2969 0.297,0.1875 0.407,0.2969 0.5,0.2969 0.094,0 0.203,-0.1094 0.203,-1.5 0,-7.3438 -3.484,-13.3125 -6.765,-16.57817 -1.094,-1.09375 -1.094,-1.29688 -1.094,-1.59375 0,-0.70313 0.5,-1.09375 1,-1.09375 1.094,0 9.047,7.65627 9.047,19.26567" /><path
         inkscape:connector-curvature="0"
         id="path1263"
         style="fill:#000000;fill-opacity:1;fill-rule:nonzero;stroke:none"
         d="m 399.016,59.875 c 0,9.4219 2.578,27.5156 15.687,27.5156 3.078,0 9.141,-1.5 9.844,-7.6562 0.094,-0.8906 0.187,-1.5938 1.484,-1.5938 1.594,0 1.594,0.9063 1.594,1.6875 0,5.9688 -3.969,15.2032 -13.016,15.2032 -10.328,0 -17.578,-9.0313 -19.968,-24.1407 h -0.094 c -0.703,4.2813 -4.172,24.1407 -19.969,24.1407 -9.047,0 -13.015,-9.2344 -13.015,-15.2032 0,-0.7812 0,-1.6875 1.593,-1.6875 1.391,0 1.391,0.7969 1.485,1.2969 0.797,7.9531 9.343,7.9531 9.843,7.9531 13.704,0 15.688,-19.5781 15.688,-27.5156 V 32.8438 c 0,-3.375 0,-4.7657 -9.438,-4.7657 h -3.281 V 25 c 3.578,0.2969 13.016,0.2969 17.094,0.2969 4.062,0 13.609,0 17.187,-0.2969 v 3.0781 h -3.281 c -9.437,0 -9.437,1.2969 -9.437,4.7657 V 59.875" /><path
         inkscape:connector-curvature="0"
         id="path1265"
         style="fill:#000000;fill-opacity:1;fill-rule:nonzero;stroke:none"
         d="m 453.188,33.4844 c 5.484,0 9.421,-3.7969 9.421,-11.3281 0,-8.7188 -5.062,-11.3125 -9.14,-11.3125 -2.813,0 -9,0.7656 -11.953,4.9218 3.312,0.1407 4.078,2.4532 4.078,3.9375 0,2.25 -1.688,3.8594 -3.86,3.8594 -1.968,0 -3.937,-1.1875 -3.937,-4.0781 0,-6.6094 7.312,-10.89065 15.812,-10.89065 9.782,0 16.532,6.53125 16.532,13.56255 0,5.4843 -4.5,10.9687 -12.235,12.5937 7.375,2.6719 10.047,7.9375 10.047,12.2344 0,5.5469 -6.39,9.6875 -14.203,9.6875 -7.797,0 -13.781,-3.7813 -13.781,-9.4063 0,-2.3906 1.547,-3.7343 3.656,-3.7343 2.188,0 3.594,1.625 3.594,3.5937 0,2.0313 -1.406,3.5156 -3.594,3.6563 2.469,3.0937 7.313,3.8593 9.922,3.8593 3.156,0 7.594,-1.5468 7.594,-7.6562 0,-2.9531 -0.985,-6.1875 -2.813,-8.375 -2.328,-2.6719 -4.297,-2.8125 -7.812,-3.0156 -1.75,-0.1407 -1.891,-0.1407 -2.25,-0.2188 -0.141,0 -0.703,-0.1406 -0.703,-0.9062 0,-0.9844 0.64,-0.9844 1.828,-0.9844 h 3.797" /><path
         inkscape:connector-curvature="0"
         id="path1267"
         style="fill:#000000;fill-opacity:1;fill-rule:nonzero;stroke:none"
         d="m 507.703,49.8281 c 0,7.75 -1.094,19.7813 -6.547,31 -5.968,12.2188 -14.5,18.6719 -15.5,18.6719 -0.593,0 -1,-0.3906 -1,-0.9844 0,-0.2968 0,-0.5 1.891,-2.2968 9.734,-9.8282 15.406,-25.625 15.406,-46.3907 0,-16.9843 -3.687,-34.4687 -16,-46.98435 -1.297,-1.1875 -1.297,-1.39062 -1.297,-1.6875 0,-0.59375 0.407,-0.984375 1,-0.984375 1,0 9.938,6.750005 15.797,19.359425 5.063,10.9375 6.25,21.9531 6.25,30.2968" /></g></g><g
     transform="matrix(3.5,0,0,3.5,487.07473,381.42)"
     inkscape:label="in2"
     id="g1288"><g
       transform="scale(0.1)"
       id="g1290"><path
         inkscape:connector-curvature="0"
         id="path1292"
         style="fill:#000000;fill-opacity:1;fill-rule:nonzero;stroke:none"
         d="m 24.875,1.15625 c 0,0.29688 0,0.5 -1.6875,2.1875 C 10.7813,15.8594 7.59375,34.6406 7.59375,49.8281 c 0,17.2969 3.78125,34.5782 16.00005,47 1.2812,1.1875 1.2812,1.3907 1.2812,1.6875 0,0.6875 -0.3906,0.9844 -0.9844,0.9844 -1,0 -9.9375,-6.75 -15.79685,-19.375 C 3.03125,69.2031 1.82813,58.1719 1.82813,49.8281 c 0,-7.7343 1.09375,-19.7656 6.5625,-30.9843 C 14.3438,6.625 22.8906,0.171875 23.8906,0.171875 c 0.5938,0 0.9844,0.296875 0.9844,0.984375" /><path
         inkscape:connector-curvature="0"
         id="path1294"
         style="fill:#000000;fill-opacity:1;fill-rule:nonzero;stroke:none"
         d="m 83.9375,68.1094 c 0,0.5 -0.3906,1.7969 -1.7812,1.7969 -0.1094,0 -5.9688,-1.3907 -9.0469,-4.2813 -1.3906,1.5938 -4.7656,4.2813 -10.625,4.2813 -17.2813,0 -28.0156,-15.7032 -28.0156,-29.3125 0,-12.2188 9.1406,-16.3907 17.3906,-16.3907 4.7656,0 8.7344,1.8907 10.8281,3.1875 L 58.9063,12.2813 c -0.3907,-1.4844 -0.5,-1.5782 -1.1875,-1.6875 -1.0938,-0.2032 -2.6875,-0.2032 -3.7813,-0.2032 -1.6875,0 -2.2812,0 -2.7812,-0.59372 -0.5,-0.59375 -0.7969,-2.1875 -0.7969,-2.28125 0,-0.59375 0.4062,-1.78125 1.9844,-1.78125 3.3906,0 7.0625,0.29687 10.5312,0.29687 3.6875,0 7.4531,-0.29687 11.0313,-0.29687 0.7031,0 2.5781,0 2.5781,2.875 0,1.68752 -1.6875,1.78122 -2.5781,1.78122 -1.3907,0 -2.9844,0 -4.2657,0.1094 z M 64.7656,35.625 c -0.5,-1.6875 -0.5,-1.8906 -1.5937,-2.875 C 60,29.5625 55.8281,27.7813 52.3438,27.7813 c -6.1563,0 -6.6563,5.3593 -6.6563,7.5468 0,5.1719 3.3906,17.3907 4.9688,21.2657 3.0781,7.25 7.9531,9.7343 12.0312,9.7343 5.8594,0 8.2344,-4.6718 8.2344,-5.7656 0,-0.3906 -0.0938,-1.0937 -0.1875,-1.3906 L 64.7656,35.625" /><path
         inkscape:connector-curvature="0"
         id="path1296"
         style="fill:#000000;fill-opacity:1;fill-rule:nonzero;stroke:none"
         d="m 175.469,47.8438 c 1.687,0 3.469,0 3.469,1.9843 0,2 -1.782,2 -3.469,2 h -53.75 c -1.688,0 -3.469,0 -3.469,-2 0,-1.9843 1.781,-1.9843 3.469,-1.9843 h 53.75" /><path
         inkscape:connector-curvature="0"
         id="path1298"
         style="fill:#000000;fill-opacity:1;fill-rule:nonzero;stroke:none"
         d="m 263.938,68.1094 c 0,0.5 -0.391,1.7969 -1.782,1.7969 -0.109,0 -5.968,-1.3907 -9.047,-4.2813 -1.39,1.5938 -4.765,4.2813 -10.625,4.2813 -17.281,0 -28.015,-15.7032 -28.015,-29.3125 0,-12.2188 9.14,-16.3907 17.39,-16.3907 4.766,0 8.735,1.8907 10.829,3.1875 l -3.782,-15.1093 c -0.39,-1.4844 -0.5,-1.5782 -1.187,-1.6875 -1.094,-0.2032 -2.688,-0.2032 -3.781,-0.2032 -1.688,0 -2.282,0 -2.782,-0.59372 -0.5,-0.59375 -0.797,-2.1875 -0.797,-2.28125 0,-0.59375 0.407,-1.78125 1.985,-1.78125 3.39,0 7.062,0.29687 10.531,0.29687 3.688,0 7.453,-0.29687 11.031,-0.29687 0.703,0 2.578,0 2.578,2.875 0,1.68752 -1.687,1.78122 -2.578,1.78122 -1.39,0 -2.984,0 -4.265,0.1094 z M 244.766,35.625 c -0.5,-1.6875 -0.5,-1.8906 -1.594,-2.875 -3.172,-3.1875 -7.344,-4.9687 -10.828,-4.9687 -6.156,0 -6.656,5.3593 -6.656,7.5468 0,5.1719 3.39,17.3907 4.968,21.2657 3.078,7.25 7.953,9.7343 12.032,9.7343 5.859,0 8.234,-4.6718 8.234,-5.7656 0,-0.3906 -0.094,-1.0937 -0.188,-1.3906 L 244.766,35.625" /><path
         inkscape:connector-curvature="0"
         id="path1300"
         style="fill:#000000;fill-opacity:1;fill-rule:nonzero;stroke:none"
         d="m 291.547,45.7031 c 0,1.9063 -0.141,1.9688 -2.109,1.9688 -4.5,-4.4219 -10.891,-4.4844 -13.782,-4.4844 v -2.5312 c 1.688,0 6.328,0 10.203,1.9687 V 6.76563 c 0,-2.32813 0,-3.23438 -7.031,-3.23438 h -2.672 V 1 c 1.266,0.0625 9.907,0.28125 12.516,0.28125 2.172,0 11.031,-0.21875 12.578,-0.28125 v 2.53125 h -2.672 c -7.031,0 -7.031,0.90625 -7.031,3.23438 V 45.7031" /><path
         inkscape:connector-curvature="0"
         id="path1302"
         style="fill:#000000;fill-opacity:1;fill-rule:nonzero;stroke:none"
         d="m 332.172,25.0938 c 0,6.5625 -2.484,10.4375 -6.359,10.4375 -3.282,0 -5.266,-2.4844 -5.266,-5.2657 0,-2.6875 1.984,-5.2656 5.266,-5.2656 1.187,0 2.484,0.3906 3.468,1.2969 0.297,0.1875 0.407,0.2969 0.5,0.2969 0.094,0 0.203,-0.1094 0.203,-1.5 0,-7.3438 -3.484,-13.3125 -6.765,-16.57817 -1.094,-1.09375 -1.094,-1.29688 -1.094,-1.59375 0,-0.70313 0.5,-1.09375 1,-1.09375 1.094,0 9.047,7.65627 9.047,19.26567" /><path
         inkscape:connector-curvature="0"
         id="path1304"
         style="fill:#000000;fill-opacity:1;fill-rule:nonzero;stroke:none"
         d="m 399.016,59.875 c 0,9.4219 2.578,27.5156 15.687,27.5156 3.078,0 9.141,-1.5 9.844,-7.6562 0.094,-0.8906 0.187,-1.5938 1.484,-1.5938 1.594,0 1.594,0.9063 1.594,1.6875 0,5.9688 -3.969,15.2032 -13.016,15.2032 -10.328,0 -17.578,-9.0313 -19.968,-24.1407 h -0.094 c -0.703,4.2813 -4.172,24.1407 -19.969,24.1407 -9.047,0 -13.015,-9.2344 -13.015,-15.2032 0,-0.7812 0,-1.6875 1.593,-1.6875 1.391,0 1.391,0.7969 1.485,1.2969 0.797,7.9531 9.343,7.9531 9.843,7.9531 13.704,0 15.688,-19.5781 15.688,-27.5156 V 32.8438 c 0,-3.375 0,-4.7657 -9.438,-4.7657 h -3.281 V 25 c 3.578,0.2969 13.016,0.2969 17.094,0.2969 4.062,0 13.609,0 17.187,-0.2969 v 3.0781 h -3.281 c -9.437,0 -9.437,1.2969 -9.437,4.7657 V 59.875" /><path
         inkscape:connector-curvature="0"
         id="path1306"
         style="fill:#000000;fill-opacity:1;fill-rule:nonzero;stroke:none"
         d="m 471.188,21.5313 v 2.5312 h -7.797 v 31.3438 c 0,1.4843 0,1.9687 -1.547,1.9687 -0.844,0 -1.125,0 -1.828,-0.9844 L 436.734,24.0625 v -2.5312 h 20.672 v -5.7657 c 0,-2.3906 0,-3.2343 -5.687,-3.2343 h -1.906 V 10 c 3.515,0.1406 8.015,0.2813 10.546,0.2813 2.61,0 7.11,-0.1407 10.625,-0.2813 v 2.5313 h -1.906 c -5.687,0 -5.687,0.8437 -5.687,3.2343 v 5.7657 z M 457.906,49.7969 V 24.0625 h -18.562 z" /><path
         inkscape:connector-curvature="0"
         id="path1308"
         style="fill:#000000;fill-opacity:1;fill-rule:nonzero;stroke:none"
         d="m 507.703,49.8281 c 0,7.75 -1.094,19.7813 -6.547,31 -5.968,12.2188 -14.5,18.6719 -15.5,18.6719 -0.593,0 -1,-0.3906 -1,-0.9844 0,-0.2968 0,-0.5 1.891,-2.2968 9.734,-9.8282 15.406,-25.625 15.406,-46.3907 0,-16.9843 -3.687,-34.4687 -16,-46.98435 -1.297,-1.1875 -1.297,-1.39062 -1.297,-1.6875 0,-0.59375 0.407,-0.984375 1,-0.984375 1,0 9.938,6.750005 15.797,19.359425 5.063,10.9375 6.25,21.9531 6.25,30.2968" /></g></g><g
     transform="matrix(3.5,0,0,3.5,190.4302,730.23515)"
     inkscape:label="out1"
     id="g1329"><g
       transform="scale(0.1)"
       id="g1331"><path
         inkscape:connector-curvature="0"
         id="path1333"
         style="fill:#000000;fill-opacity:1;fill-rule:nonzero;stroke:none"
         d="m 24.875,1.15625 c 0,0.29688 0,0.5 -1.6875,2.1875 C 10.7813,15.8594 7.59375,34.6406 7.59375,49.8281 c 0,17.2969 3.78125,34.5782 16.00005,47 1.2812,1.1875 1.2812,1.3907 1.2812,1.6875 0,0.6875 -0.3906,0.9844 -0.9844,0.9844 -1,0 -9.9375,-6.75 -15.79685,-19.375 C 3.03125,69.2031 1.82813,58.1719 1.82813,49.8281 c 0,-7.7343 1.09375,-19.7656 6.5625,-30.9843 C 14.3438,6.625 22.8906,0.171875 23.8906,0.171875 c 0.5938,0 0.9844,0.296875 0.9844,0.984375" /><path
         inkscape:connector-curvature="0"
         id="path1335"
         style="fill:#000000;fill-opacity:1;fill-rule:nonzero;stroke:none"
         d="m 83.9375,68.1094 c 0,0.5 -0.3906,1.7969 -1.7812,1.7969 -0.1094,0 -5.9688,-1.3907 -9.0469,-4.2813 -1.3906,1.5938 -4.7656,4.2813 -10.625,4.2813 -17.2813,0 -28.0156,-15.7032 -28.0156,-29.3125 0,-12.2188 9.1406,-16.3907 17.3906,-16.3907 4.7656,0 8.7344,1.8907 10.8281,3.1875 L 58.9063,12.2813 c -0.3907,-1.4844 -0.5,-1.5782 -1.1875,-1.6875 -1.0938,-0.2032 -2.6875,-0.2032 -3.7813,-0.2032 -1.6875,0 -2.2812,0 -2.7812,-0.59372 -0.5,-0.59375 -0.7969,-2.1875 -0.7969,-2.28125 0,-0.59375 0.4062,-1.78125 1.9844,-1.78125 3.3906,0 7.0625,0.29687 10.5312,0.29687 3.6875,0 7.4531,-0.29687 11.0313,-0.29687 0.7031,0 2.5781,0 2.5781,2.875 0,1.68752 -1.6875,1.78122 -2.5781,1.78122 -1.3907,0 -2.9844,0 -4.2657,0.1094 z M 64.7656,35.625 c -0.5,-1.6875 -0.5,-1.8906 -1.5937,-2.875 C 60,29.5625 55.8281,27.7813 52.3438,27.7813 c -6.1563,0 -6.6563,5.3593 -6.6563,7.5468 0,5.1719 3.3906,17.3907 4.9688,21.2657 3.0781,7.25 7.9531,9.7343 12.0312,9.7343 5.8594,0 8.2344,-4.6718 8.2344,-5.7656 0,-0.3906 -0.0938,-1.0937 -0.1875,-1.3906 L 64.7656,35.625" /><path
         inkscape:connector-curvature="0"
         id="path1337"
         style="fill:#000000;fill-opacity:1;fill-rule:nonzero;stroke:none"
         d="m 150.625,47.8438 h 27.719 c 1.39,0 3.281,0 3.281,1.9843 0,2 -1.891,2 -3.281,2 h -27.719 v 27.8125 c 0,1.3907 0,3.2657 -1.984,3.2657 -1.985,0 -1.985,-1.875 -1.985,-3.2657 V 51.8281 h -27.812 c -1.391,0 -3.281,0 -3.281,-2 0,-1.9843 1.89,-1.9843 3.281,-1.9843 h 27.812 V 20.0313 c 0,-1.3907 0,-3.2813 1.985,-3.2813 1.984,0 1.984,1.8906 1.984,3.2813 v 27.8125" /><path
         inkscape:connector-curvature="0"
         id="path1339"
         style="fill:#000000;fill-opacity:1;fill-rule:nonzero;stroke:none"
         d="m 263.938,68.1094 c 0,0.5 -0.391,1.7969 -1.782,1.7969 -0.109,0 -5.968,-1.3907 -9.047,-4.2813 -1.39,1.5938 -4.765,4.2813 -10.625,4.2813 -17.281,0 -28.015,-15.7032 -28.015,-29.3125 0,-12.2188 9.14,-16.3907 17.39,-16.3907 4.766,0 8.735,1.8907 10.829,3.1875 l -3.782,-15.1093 c -0.39,-1.4844 -0.5,-1.5782 -1.187,-1.6875 -1.094,-0.2032 -2.688,-0.2032 -3.781,-0.2032 -1.688,0 -2.282,0 -2.782,-0.59372 -0.5,-0.59375 -0.797,-2.1875 -0.797,-2.28125 0,-0.59375 0.407,-1.78125 1.985,-1.78125 3.39,0 7.062,0.29687 10.531,0.29687 3.688,0 7.453,-0.29687 11.031,-0.29687 0.703,0 2.578,0 2.578,2.875 0,1.68752 -1.687,1.78122 -2.578,1.78122 -1.39,0 -2.984,0 -4.265,0.1094 z M 244.766,35.625 c -0.5,-1.6875 -0.5,-1.8906 -1.594,-2.875 -3.172,-3.1875 -7.344,-4.9687 -10.828,-4.9687 -6.156,0 -6.656,5.3593 -6.656,7.5468 0,5.1719 3.39,17.3907 4.968,21.2657 3.078,7.25 7.953,9.7343 12.032,9.7343 5.859,0 8.234,-4.6718 8.234,-5.7656 0,-0.3906 -0.094,-1.0937 -0.188,-1.3906 L 244.766,35.625" /><path
         inkscape:connector-curvature="0"
         id="path1341"
         style="fill:#000000;fill-opacity:1;fill-rule:nonzero;stroke:none"
         d="m 303.5,13.7969 h -2.391 C 300.906,12.25 300.203,8.09375 299.281,7.39063 298.719,6.96875 293.313,6.96875 292.328,6.96875 h -12.937 c 7.375,6.54685 9.843,8.51565 14.062,11.81255 5.203,4.1562 10.047,8.5156 10.047,15.1875 0,8.5156 -7.453,13.7031 -16.453,13.7031 -8.719,0 -14.625,-6.1094 -14.625,-12.5781 0,-3.5782 3.031,-3.9375 3.734,-3.9375 1.688,0 3.719,1.2031 3.719,3.7343 0,1.2657 -0.484,3.7188 -4.141,3.7188 2.172,5 6.954,6.5469 10.266,6.5469 7.031,0 10.688,-5.4844 10.688,-11.1875 0,-6.1094 -4.36,-10.9688 -6.61,-13.5 L 273.125,3.73438 C 272.422,3.10938 272.422,2.96875 272.422,1 h 28.969 l 2.109,12.7969" /><path
         inkscape:connector-curvature="0"
         id="path1343"
         style="fill:#000000;fill-opacity:1;fill-rule:nonzero;stroke:none"
         d="m 332.172,25.0938 c 0,6.5625 -2.484,10.4375 -6.359,10.4375 -3.282,0 -5.266,-2.4844 -5.266,-5.2657 0,-2.6875 1.984,-5.2656 5.266,-5.2656 1.187,0 2.484,0.3906 3.468,1.2969 0.297,0.1875 0.407,0.2969 0.5,0.2969 0.094,0 0.203,-0.1094 0.203,-1.5 0,-7.3438 -3.484,-13.3125 -6.765,-16.57817 -1.094,-1.09375 -1.094,-1.29688 -1.094,-1.59375 0,-0.70313 0.5,-1.09375 1,-1.09375 1.094,0 9.047,7.65627 9.047,19.26567" /><path
         inkscape:connector-curvature="0"
         id="path1345"
         style="fill:#000000;fill-opacity:1;fill-rule:nonzero;stroke:none"
         d="m 399.016,59.875 c 0,9.4219 2.578,27.5156 15.687,27.5156 3.078,0 9.141,-1.5 9.844,-7.6562 0.094,-0.8906 0.187,-1.5938 1.484,-1.5938 1.594,0 1.594,0.9063 1.594,1.6875 0,5.9688 -3.969,15.2032 -13.016,15.2032 -10.328,0 -17.578,-9.0313 -19.968,-24.1407 h -0.094 c -0.703,4.2813 -4.172,24.1407 -19.969,24.1407 -9.047,0 -13.015,-9.2344 -13.015,-15.2032 0,-0.7812 0,-1.6875 1.593,-1.6875 1.391,0 1.391,0.7969 1.485,1.2969 0.797,7.9531 9.343,7.9531 9.843,7.9531 13.704,0 15.688,-19.5781 15.688,-27.5156 V 32.8438 c 0,-3.375 0,-4.7657 -9.438,-4.7657 h -3.281 V 25 c 3.578,0.2969 13.016,0.2969 17.094,0.2969 4.062,0 13.609,0 17.187,-0.2969 v 3.0781 h -3.281 c -9.437,0 -9.437,1.2969 -9.437,4.7657 V 59.875" /><path
         inkscape:connector-curvature="0"
         id="path1347"
         style="fill:#000000;fill-opacity:1;fill-rule:nonzero;stroke:none"
         d="m 457.547,54.7031 c 0,1.9063 -0.141,1.9688 -2.109,1.9688 -4.5,-4.4219 -10.891,-4.4844 -13.782,-4.4844 v -2.5312 c 1.688,0 6.328,0 10.203,1.9687 V 15.7656 c 0,-2.3281 0,-3.2343 -7.031,-3.2343 h -2.672 V 10 c 1.266,0.0625 9.907,0.2813 12.516,0.2813 2.172,0 11.031,-0.2188 12.578,-0.2813 v 2.5313 h -2.672 c -7.031,0 -7.031,0.9062 -7.031,3.2343 v 38.9375" /><path
         inkscape:connector-curvature="0"
         id="path1349"
         style="fill:#000000;fill-opacity:1;fill-rule:nonzero;stroke:none"
         d="m 507.703,49.8281 c 0,7.75 -1.094,19.7813 -6.547,31 -5.968,12.2188 -14.5,18.6719 -15.5,18.6719 -0.593,0 -1,-0.3906 -1,-0.9844 0,-0.2968 0,-0.5 1.891,-2.2968 9.734,-9.8282 15.406,-25.625 15.406,-46.3907 0,-16.9843 -3.687,-34.4687 -16,-46.98435 -1.297,-1.1875 -1.297,-1.39062 -1.297,-1.6875 0,-0.59375 0.407,-0.984375 1,-0.984375 1,0 9.938,6.750005 15.797,19.359425 5.063,10.9375 6.25,21.9531 6.25,30.2968" /></g></g><g
     transform="matrix(3.5,0,0,3.5,475.4988,728.7236)"
     inkscape:label="out2"
     id="g1370"><g
       transform="scale(0.1)"
       id="g1372"><path
         inkscape:connector-curvature="0"
         id="path1374"
         style="fill:#000000;fill-opacity:1;fill-rule:nonzero;stroke:none"
         d="m 24.875,1.15625 c 0,0.29688 0,0.5 -1.6875,2.1875 C 10.7813,15.8594 7.59375,34.6406 7.59375,49.8281 c 0,17.2969 3.78125,34.5782 16.00005,47 1.2812,1.1875 1.2812,1.3907 1.2812,1.6875 0,0.6875 -0.3906,0.9844 -0.9844,0.9844 -1,0 -9.9375,-6.75 -15.79685,-19.375 C 3.03125,69.2031 1.82813,58.1719 1.82813,49.8281 c 0,-7.7343 1.09375,-19.7656 6.5625,-30.9843 C 14.3438,6.625 22.8906,0.171875 23.8906,0.171875 c 0.5938,0 0.9844,0.296875 0.9844,0.984375" /><path
         inkscape:connector-curvature="0"
         id="path1376"
         style="fill:#000000;fill-opacity:1;fill-rule:nonzero;stroke:none"
         d="m 83.9375,68.1094 c 0,0.5 -0.3906,1.7969 -1.7812,1.7969 -0.1094,0 -5.9688,-1.3907 -9.0469,-4.2813 -1.3906,1.5938 -4.7656,4.2813 -10.625,4.2813 -17.2813,0 -28.0156,-15.7032 -28.0156,-29.3125 0,-12.2188 9.1406,-16.3907 17.3906,-16.3907 4.7656,0 8.7344,1.8907 10.8281,3.1875 L 58.9063,12.2813 c -0.3907,-1.4844 -0.5,-1.5782 -1.1875,-1.6875 -1.0938,-0.2032 -2.6875,-0.2032 -3.7813,-0.2032 -1.6875,0 -2.2812,0 -2.7812,-0.59372 -0.5,-0.59375 -0.7969,-2.1875 -0.7969,-2.28125 0,-0.59375 0.4062,-1.78125 1.9844,-1.78125 3.3906,0 7.0625,0.29687 10.5312,0.29687 3.6875,0 7.4531,-0.29687 11.0313,-0.29687 0.7031,0 2.5781,0 2.5781,2.875 0,1.68752 -1.6875,1.78122 -2.5781,1.78122 -1.3907,0 -2.9844,0 -4.2657,0.1094 z M 64.7656,35.625 c -0.5,-1.6875 -0.5,-1.8906 -1.5937,-2.875 C 60,29.5625 55.8281,27.7813 52.3438,27.7813 c -6.1563,0 -6.6563,5.3593 -6.6563,7.5468 0,5.1719 3.3906,17.3907 4.9688,21.2657 3.0781,7.25 7.9531,9.7343 12.0312,9.7343 5.8594,0 8.2344,-4.6718 8.2344,-5.7656 0,-0.3906 -0.0938,-1.0937 -0.1875,-1.3906 L 64.7656,35.625" /><path
         inkscape:connector-curvature="0"
         id="path1378"
         style="fill:#000000;fill-opacity:1;fill-rule:nonzero;stroke:none"
         d="m 175.469,47.8438 c 1.687,0 3.469,0 3.469,1.9843 0,2 -1.782,2 -3.469,2 h -53.75 c -1.688,0 -3.469,0 -3.469,-2 0,-1.9843 1.781,-1.9843 3.469,-1.9843 h 53.75" /><path
         inkscape:connector-curvature="0"
         id="path1380"
         style="fill:#000000;fill-opacity:1;fill-rule:nonzero;stroke:none"
         d="m 263.938,68.1094 c 0,0.5 -0.391,1.7969 -1.782,1.7969 -0.109,0 -5.968,-1.3907 -9.047,-4.2813 -1.39,1.5938 -4.765,4.2813 -10.625,4.2813 -17.281,0 -28.015,-15.7032 -28.015,-29.3125 0,-12.2188 9.14,-16.3907 17.39,-16.3907 4.766,0 8.735,1.8907 10.829,3.1875 l -3.782,-15.1093 c -0.39,-1.4844 -0.5,-1.5782 -1.187,-1.6875 -1.094,-0.2032 -2.688,-0.2032 -3.781,-0.2032 -1.688,0 -2.282,0 -2.782,-0.59372 -0.5,-0.59375 -0.797,-2.1875 -0.797,-2.28125 0,-0.59375 0.407,-1.78125 1.985,-1.78125 3.39,0 7.062,0.29687 10.531,0.29687 3.688,0 7.453,-0.29687 11.031,-0.29687 0.703,0 2.578,0 2.578,2.875 0,1.68752 -1.687,1.78122 -2.578,1.78122 -1.39,0 -2.984,0 -4.265,0.1094 z M 244.766,35.625 c -0.5,-1.6875 -0.5,-1.8906 -1.594,-2.875 -3.172,-3.1875 -7.344,-4.9687 -10.828,-4.9687 -6.156,0 -6.656,5.3593 -6.656,7.5468 0,5.1719 3.39,17.3907 4.968,21.2657 3.078,7.25 7.953,9.7343 12.032,9.7343 5.859,0 8.234,-4.6718 8.234,-5.7656 0,-0.3906 -0.094,-1.0937 -0.188,-1.3906 L 244.766,35.625" /><path
         inkscape:connector-curvature="0"
         id="path1382"
         style="fill:#000000;fill-opacity:1;fill-rule:nonzero;stroke:none"
         d="m 303.5,13.7969 h -2.391 C 300.906,12.25 300.203,8.09375 299.281,7.39063 298.719,6.96875 293.313,6.96875 292.328,6.96875 h -12.937 c 7.375,6.54685 9.843,8.51565 14.062,11.81255 5.203,4.1562 10.047,8.5156 10.047,15.1875 0,8.5156 -7.453,13.7031 -16.453,13.7031 -8.719,0 -14.625,-6.1094 -14.625,-12.5781 0,-3.5782 3.031,-3.9375 3.734,-3.9375 1.688,0 3.719,1.2031 3.719,3.7343 0,1.2657 -0.484,3.7188 -4.141,3.7188 2.172,5 6.954,6.5469 10.266,6.5469 7.031,0 10.688,-5.4844 10.688,-11.1875 0,-6.1094 -4.36,-10.9688 -6.61,-13.5 L 273.125,3.73438 C 272.422,3.10938 272.422,2.96875 272.422,1 h 28.969 l 2.109,12.7969" /><path
         inkscape:connector-curvature="0"
         id="path1384"
         style="fill:#000000;fill-opacity:1;fill-rule:nonzero;stroke:none"
         d="m 332.172,25.0938 c 0,6.5625 -2.484,10.4375 -6.359,10.4375 -3.282,0 -5.266,-2.4844 -5.266,-5.2657 0,-2.6875 1.984,-5.2656 5.266,-5.2656 1.187,0 2.484,0.3906 3.468,1.2969 0.297,0.1875 0.407,0.2969 0.5,0.2969 0.094,0 0.203,-0.1094 0.203,-1.5 0,-7.3438 -3.484,-13.3125 -6.765,-16.57817 -1.094,-1.09375 -1.094,-1.29688 -1.094,-1.59375 0,-0.70313 0.5,-1.09375 1,-1.09375 1.094,0 9.047,7.65627 9.047,19.26567" /><path
         inkscape:connector-curvature="0"
         id="path1386"
         style="fill:#000000;fill-opacity:1;fill-rule:nonzero;stroke:none"
         d="m 399.016,59.875 c 0,9.4219 2.578,27.5156 15.687,27.5156 3.078,0 9.141,-1.5 9.844,-7.6562 0.094,-0.8906 0.187,-1.5938 1.484,-1.5938 1.594,0 1.594,0.9063 1.594,1.6875 0,5.9688 -3.969,15.2032 -13.016,15.2032 -10.328,0 -17.578,-9.0313 -19.968,-24.1407 h -0.094 c -0.703,4.2813 -4.172,24.1407 -19.969,24.1407 -9.047,0 -13.015,-9.2344 -13.015,-15.2032 0,-0.7812 0,-1.6875 1.593,-1.6875 1.391,0 1.391,0.7969 1.485,1.2969 0.797,7.9531 9.343,7.9531 9.843,7.9531 13.704,0 15.688,-19.5781 15.688,-27.5156 V 32.8438 c 0,-3.375 0,-4.7657 -9.438,-4.7657 h -3.281 V 25 c 3.578,0.2969 13.016,0.2969 17.094,0.2969 4.062,0 13.609,0 17.187,-0.2969 v 3.0781 h -3.281 c -9.437,0 -9.437,1.2969 -9.437,4.7657 V 59.875" /><path
         inkscape:connector-curvature="0"
         id="path1388"
         style="fill:#000000;fill-opacity:1;fill-rule:nonzero;stroke:none"
         d="m 469.5,22.7969 h -2.391 c -0.203,-1.5469 -0.906,-5.7031 -1.828,-6.4063 -0.562,-0.4218 -5.968,-0.4218 -6.953,-0.4218 h -12.937 c 7.375,6.5468 9.843,8.5156 14.062,11.8125 5.203,4.1562 10.047,8.5156 10.047,15.1875 0,8.5156 -7.453,13.7031 -16.453,13.7031 -8.719,0 -14.625,-6.1094 -14.625,-12.5781 0,-3.5782 3.031,-3.9375 3.734,-3.9375 1.688,0 3.719,1.2031 3.719,3.7343 0,1.2657 -0.484,3.7188 -4.141,3.7188 2.172,5 6.954,6.5469 10.266,6.5469 7.031,0 10.688,-5.4844 10.688,-11.1875 0,-6.1094 -4.36,-10.9688 -6.61,-13.5 L 439.125,12.7344 C 438.422,12.1094 438.422,11.9688 438.422,10 h 28.969 l 2.109,12.7969" /><path
         inkscape:connector-curvature="0"
         id="path1390"
         style="fill:#000000;fill-opacity:1;fill-rule:nonzero;stroke:none"
         d="m 507.703,49.8281 c 0,7.75 -1.094,19.7813 -6.547,31 -5.968,12.2188 -14.5,18.6719 -15.5,18.6719 -0.593,0 -1,-0.3906 -1,-0.9844 0,-0.2968 0,-0.5 1.891,-2.2968 9.734,-9.8282 15.406,-25.625 15.406,-46.3907 0,-16.9843 -3.687,-34.4687 -16,-46.98435 -1.297,-1.1875 -1.297,-1.39062 -1.297,-1.6875 0,-0.59375 0.407,-0.984375 1,-0.984375 1,0 9.938,6.750005 15.797,19.359425 5.063,10.9375 6.25,21.9531 6.25,30.2968" /></g></g></g><g
   id="g2536"><g
     id="g2538"
     clip-path="url(#clipPath2542)"><g
       id="g2544"
       transform="translate(986.8633,563.3574)"><path
         d="m 0,0 c 0,-3.229 -2.617,-5.846 -5.847,-5.846 -3.228,0 -5.845,2.617 -5.845,5.846 0,3.229 2.617,5.846 5.845,5.846 C -2.617,5.846 0,3.229 0,0"
         style="fill:#000000;fill-opacity:1;fill-rule:nonzero;stroke:none"
         id="path2546"
         inkscape:connector-curvature="0" /></g><g
       id="g2548"
       transform="translate(986.8633,563.3574)"><path
         d="m 0,0 c 0,-3.229 -2.617,-5.846 -5.847,-5.846 -3.228,0 -5.845,2.617 -5.845,5.846 0,3.229 2.617,5.846 5.845,5.846 C -2.617,5.846 0,3.229 0,0 Z"
         style="fill:none;stroke:#000000;stroke-width:2;stroke-linecap:butt;stroke-linejoin:miter;stroke-miterlimit:10;stroke-dasharray:none;stroke-opacity:1"
         id="path2550"
         inkscape:connector-curvature="0" /></g></g></g><text
   transform="matrix(1,0,0,-1,981.0171,350.0762)"
   style="font-variant:normal;font-weight:normal;font-stretch:normal;font-size:36px;font-family:'Myriad Pro';-inkscape-font-specification:MyriadPro-Regular;writing-mode:lr-tb;fill:#000000;fill-opacity:1;fill-rule:nonzero;stroke:none"
   id="text2554"><tspan
     x="0 10.224 30.6 -572.29199 -562.06799 -544.716"
     y="0"
     sodipodi:role="line"
     id="tspan2552">(b)(a)</tspan></text>

</g></svg>